<svg width="74" height="74" viewBox="0 0 74 74" fill="none" xmlns="http://www.w3.org/2000/svg">
<rect width="74" height="74" rx="8" fill="#1F1D3D"/>
<path d="M59.4688 24C60.9006 24.0001 61.2304 24.2843 61.3574 24.542C61.4423 24.7143 61.4862 24.9652 61.4971 25.3604C61.5083 25.7692 61.4854 26.1968 61.4854 26.7842C61.4854 27.3423 61.4845 27.7419 61.4492 28.0488C61.4141 28.3546 61.3519 28.4862 61.292 28.5557C61.2376 28.6185 61.1267 28.6983 60.8291 28.7559C60.5258 28.8145 60.095 28.8379 59.4688 28.8379C58.1789 28.8379 56.9905 29.0216 56.1104 29.5469C55.1875 30.0977 54.6533 30.9952 54.6533 32.2568V43.9326C54.6533 45.9693 53.8235 47.4691 52.5908 48.4697C51.3457 49.4804 49.664 50 47.9609 50C46.2578 50 44.5762 49.4804 43.3311 48.4697C42.0984 47.4691 41.2686 45.9693 41.2686 43.9326V32.2568C41.2686 30.403 39.4708 28.8379 36.4531 28.8379C33.436 28.838 31.638 30.4027 31.6377 32.2559V48.3115C31.6376 48.6074 31.5094 49.0247 31.1592 49.3682C30.818 49.7028 30.231 50 29.2607 50C28.2908 49.9999 27.7044 49.7027 27.3633 49.3682C27.0131 49.0247 26.8849 48.6074 26.8848 48.3115V32.2568C26.8848 30.403 25.0868 28.838 22.0693 28.8379C19.052 28.8379 17.2542 30.4026 17.2539 32.2559V48.3115C17.2538 48.6074 17.1247 49.0247 16.7744 49.3682C16.4332 49.7027 15.847 50 14.877 50C13.907 50 13.3208 49.7027 12.9795 49.3682C12.6291 49.0245 12.5 48.6065 12.5 48.3105V30.7969C12.5001 28.7923 13.4808 27.111 15.166 25.9141C16.8611 24.7102 19.2711 24 22.0693 24C24.857 24 26.5555 24.7061 27.543 25.374C28.0389 25.7096 28.3638 26.0407 28.5605 26.2803C28.659 26.4001 28.7253 26.4979 28.7656 26.5615C28.7857 26.5932 28.8 26.6163 28.8076 26.6299C28.8097 26.6335 28.8113 26.6365 28.8125 26.6387V26.6396L28.8135 26.6416V26.6426L29.2607 27.5488L29.709 26.6396L29.7148 26.6299C29.7225 26.6162 29.7367 26.5932 29.7568 26.5615C29.7972 26.4978 29.8642 26.4003 29.9629 26.2803C30.16 26.0406 30.4851 25.7096 30.9814 25.374C31.9698 24.706 33.6683 24 36.4561 24C39.2541 24 41.6634 24.7104 43.3584 25.9141C45.0437 27.111 46.0253 28.7922 46.0254 30.7969V43.9326L46.0225 44.6602V44.6621C46.0225 44.9838 46.1137 45.4563 46.4023 45.8633C46.7095 46.2962 47.2195 46.6221 47.9609 46.6221C48.7023 46.6221 49.2124 46.2961 49.5195 45.8633C49.8082 45.4563 49.8994 44.9838 49.8994 44.6621V30.7969C49.8996 27.9438 51.5306 26.2656 53.5732 25.2725C55.6386 24.2683 58.0736 24 59.4688 24ZM28.8145 26.6426V26.6436L28.8135 26.6406H28.8125C28.813 26.6416 28.8142 26.642 28.8145 26.6426Z" fill="white" stroke="white" stroke-linecap="round"/>
</svg>
