<svg width="407" height="62" viewBox="0 0 407 62" fill="none" xmlns="http://www.w3.org/2000/svg">
<path d="M110.127 0.5C113.46 0.500047 114.62 1.14031 115.102 2.1084C115.364 2.6348 115.468 3.32869 115.493 4.25586C115.519 5.1967 115.467 6.24394 115.467 7.54102C115.467 8.80863 115.466 9.76962 115.379 10.5195C115.292 11.268 115.126 11.7234 114.859 12.0293C114.598 12.3294 114.176 12.5584 113.409 12.7051C112.638 12.8526 111.584 12.9053 110.127 12.9053C107.176 12.9053 104.565 13.326 102.677 14.4414C100.745 15.5823 99.6152 17.4254 99.6152 20.1084V46.9189C99.6152 51.7918 97.6004 55.4195 94.5879 57.8398C91.5627 60.2702 87.5073 61.4999 83.4297 61.5C79.3519 61.5 75.2958 60.2703 72.2705 57.8398C69.2581 55.4195 67.2432 51.7917 67.2432 46.9189V20.1084C67.2432 16.3587 63.5413 12.9053 56.7314 12.9053C49.9219 12.9054 46.2207 16.3588 46.2207 20.1074V56.9736C46.2207 57.8197 45.8553 58.9459 44.9121 59.8613C43.9778 60.7681 42.4416 61.5 40.0459 61.5C37.6502 61.5 36.114 60.7682 35.1797 59.8613C34.2365 58.9459 33.8721 57.8197 33.8721 56.9736V20.1084C33.8721 16.3587 30.1701 12.9053 23.3604 12.9053C16.5506 12.9053 12.8486 16.3587 12.8486 20.1074V56.9736C12.8486 57.8197 12.4832 58.9459 11.54 59.8613C10.6058 60.768 9.07005 61.4999 6.6748 61.5C4.27906 61.5 2.74292 60.7674 1.80859 59.8604C0.865457 58.9447 0.5 57.8187 0.5 56.9727V16.7568C0.5 11.9165 2.90299 7.87097 6.96191 5.01758C11.0306 2.15739 16.7636 0.5 23.3604 0.5C29.9465 0.500028 34.0189 2.15195 36.4307 3.7666C37.6389 4.57552 38.4384 5.38015 38.9316 5.97461C39.1783 6.27193 39.3481 6.5175 39.4551 6.68457C39.5085 6.7681 39.547 6.83176 39.5703 6.87305C39.5819 6.89363 39.59 6.90912 39.5947 6.91797C39.5965 6.92136 39.5969 6.92429 39.5977 6.92578H39.5986L40.0459 7.82324L40.4922 6.92578C40.4932 6.92635 40.4932 6.92672 40.4932 6.92676C40.4939 6.92542 40.4957 6.92241 40.498 6.91797C40.5028 6.90908 40.5109 6.89358 40.5225 6.87305C40.5458 6.83173 40.5834 6.76782 40.6367 6.68457C40.7439 6.51745 40.915 6.27201 41.1621 5.97461C41.656 5.38016 42.4553 4.57534 43.6641 3.7666C46.0775 2.15182 50.1519 0.5 56.7383 0.5C63.335 0.500011 69.068 2.1574 73.1367 5.01758C77.1955 7.87096 79.5986 11.9166 79.5986 16.7568V46.9189L79.5918 48.5928V48.5947C79.5918 49.2329 79.779 50.1792 80.3535 50.9805C80.9464 51.8074 81.931 52.4463 83.4297 52.4463C84.9281 52.4462 85.912 51.8073 86.5049 50.9805C87.0794 50.1792 87.2666 49.2329 87.2666 48.5947V16.7568C87.2666 9.88586 91.2677 5.84157 96.1602 3.4873C101.074 1.12266 106.833 0.5 110.127 0.5Z" fill="#C8236A" stroke="#C8236A" stroke-linecap="round"/>
<path d="M138.67 42.5V25.0455H140.636V27.7273H140.818C141.167 26.8258 141.746 26.1174 142.557 25.6023C143.375 25.0795 144.356 24.8182 145.5 24.8182C146.705 24.8182 147.693 25.1023 148.466 25.6705C149.246 26.2311 149.83 27.0038 150.216 27.9886H150.364C150.758 27.0189 151.398 26.25 152.284 25.6818C153.178 25.1061 154.261 24.8182 155.534 24.8182C157.155 24.8182 158.436 25.3295 159.375 26.3523C160.314 27.3674 160.784 28.8523 160.784 30.8068V42.5H158.761V30.8068C158.761 29.428 158.409 28.3939 157.705 27.7045C157 27.0152 156.072 26.6705 154.92 26.6705C153.587 26.6705 152.561 27.0795 151.841 27.8977C151.121 28.7159 150.761 29.7538 150.761 31.0114V42.5H148.693V30.625C148.693 29.4432 148.364 28.4886 147.705 27.7614C147.045 27.0341 146.117 26.6705 144.92 26.6705C144.117 26.6705 143.394 26.8674 142.75 27.2614C142.114 27.6553 141.61 28.2045 141.239 28.9091C140.875 29.6061 140.693 30.4091 140.693 31.3182V42.5H138.67ZM175.014 42.8977C173.961 42.8977 172.999 42.6932 172.128 42.2841C171.257 41.8674 170.563 41.2689 170.048 40.4886C169.533 39.7008 169.276 38.7462 169.276 37.625C169.276 36.7614 169.438 36.0341 169.764 35.4432C170.09 34.8523 170.552 34.3674 171.151 33.9886C171.749 33.6098 172.457 33.3106 173.276 33.0909C174.094 32.8712 174.995 32.7008 175.98 32.5795C176.957 32.4583 177.783 32.3523 178.457 32.2614C179.139 32.1705 179.658 32.0265 180.014 31.8295C180.37 31.6326 180.548 31.3144 180.548 30.875V30.4659C180.548 29.2765 180.192 28.3409 179.48 27.6591C178.776 26.9697 177.76 26.625 176.435 26.625C175.177 26.625 174.151 26.9015 173.355 27.4545C172.567 28.0076 172.014 28.6591 171.696 29.4091L169.776 28.7159C170.17 27.7614 170.715 27 171.412 26.4318C172.109 25.8561 172.889 25.4432 173.753 25.1932C174.616 24.9356 175.491 24.8068 176.378 24.8068C177.045 24.8068 177.738 24.8939 178.457 25.0682C179.185 25.2424 179.859 25.5455 180.48 25.9773C181.101 26.4015 181.605 26.9962 181.991 27.7614C182.378 28.5189 182.571 29.4811 182.571 30.6477V42.5H180.548V39.7386H180.423C180.181 40.2538 179.821 40.7538 179.344 41.2386C178.866 41.7235 178.268 42.1212 177.548 42.4318C176.829 42.7424 175.984 42.8977 175.014 42.8977ZM175.287 41.0455C176.363 41.0455 177.295 40.8068 178.082 40.3295C178.87 39.8523 179.476 39.2197 179.901 38.4318C180.332 37.6364 180.548 36.7614 180.548 35.8068V33.2841C180.397 33.428 180.143 33.5568 179.787 33.6705C179.438 33.7841 179.033 33.8864 178.571 33.9773C178.116 34.0606 177.662 34.1326 177.207 34.1932C176.753 34.2538 176.344 34.3068 175.98 34.3523C174.995 34.4735 174.154 34.6629 173.457 34.9205C172.76 35.178 172.226 35.5341 171.855 35.9886C171.484 36.4356 171.298 37.0114 171.298 37.7159C171.298 38.7765 171.677 39.5985 172.435 40.1818C173.192 40.7576 174.143 41.0455 175.287 41.0455ZM191.952 42.5V25.0455H193.918V27.7273H194.065C194.414 26.8485 195.02 26.1402 195.884 25.6023C196.755 25.0568 197.74 24.7841 198.838 24.7841C199.005 24.7841 199.19 24.7879 199.395 24.7955C199.599 24.803 199.77 24.8106 199.906 24.8182V26.875C199.815 26.8598 199.656 26.8371 199.429 26.8068C199.202 26.7765 198.955 26.7614 198.69 26.7614C197.781 26.7614 196.971 26.9545 196.259 27.3409C195.554 27.7197 194.997 28.2462 194.588 28.9205C194.179 29.5947 193.974 30.3636 193.974 31.2273V42.5H191.952ZM213.645 42.8636C212.084 42.8636 210.724 42.4735 209.565 41.6932C208.414 40.9129 207.52 39.8447 206.884 38.4886C206.247 37.1326 205.929 35.5871 205.929 33.8523C205.929 32.1023 206.251 30.5455 206.895 29.1818C207.546 27.8182 208.448 26.75 209.599 25.9773C210.751 25.197 212.088 24.8068 213.611 24.8068C214.777 24.8068 215.834 25.0341 216.781 25.4886C217.728 25.9356 218.509 26.5682 219.122 27.3864C219.743 28.197 220.134 29.1439 220.293 30.2273H218.247C218.035 29.2424 217.524 28.4015 216.713 27.7045C215.91 27 214.887 26.6477 213.645 26.6477C212.531 26.6477 211.546 26.9508 210.69 27.5568C209.834 28.1553 209.164 28.9924 208.679 30.0682C208.202 31.1364 207.963 32.375 207.963 33.7841C207.963 35.2008 208.198 36.4545 208.668 37.5455C209.137 38.6288 209.796 39.4773 210.645 40.0909C211.501 40.7045 212.501 41.0114 213.645 41.0114C214.418 41.0114 215.122 40.8674 215.759 40.5795C216.402 40.2841 216.94 39.8674 217.372 39.3295C217.812 38.7917 218.107 38.1515 218.259 37.4091H220.304C220.152 38.4621 219.777 39.4015 219.179 40.2273C218.588 41.0455 217.819 41.6894 216.872 42.1591C215.933 42.6288 214.857 42.8636 213.645 42.8636ZM235.696 42.8636C234.067 42.8636 232.658 42.4848 231.469 41.7273C230.279 40.9621 229.359 39.9053 228.707 38.5568C228.063 37.2008 227.741 35.6402 227.741 33.875C227.741 32.1174 228.063 30.5568 228.707 29.1932C229.359 27.822 230.257 26.75 231.401 25.9773C232.552 25.197 233.882 24.8068 235.389 24.8068C236.336 24.8068 237.249 24.9811 238.128 25.3295C239.007 25.6705 239.795 26.197 240.491 26.9091C241.196 27.6136 241.753 28.5038 242.162 29.5795C242.571 30.6477 242.776 31.9129 242.776 33.375V34.375H229.139V32.5909H240.707C240.707 31.4697 240.48 30.4621 240.026 29.5682C239.579 28.6667 238.954 27.9545 238.151 27.4318C237.355 26.9091 236.435 26.6477 235.389 26.6477C234.283 26.6477 233.31 26.9432 232.469 27.5341C231.628 28.125 230.969 28.9053 230.491 29.875C230.022 30.8447 229.783 31.9053 229.776 33.0568V34.125C229.776 35.5114 230.014 36.7235 230.491 37.7614C230.976 38.7917 231.662 39.5909 232.548 40.1591C233.435 40.7273 234.484 41.0114 235.696 41.0114C236.522 41.0114 237.245 40.8826 237.866 40.625C238.495 40.3674 239.022 40.0227 239.446 39.5909C239.878 39.1515 240.204 38.6705 240.423 38.1477L242.344 38.7727C242.079 39.5076 241.643 40.1856 241.037 40.8068C240.438 41.428 239.688 41.928 238.787 42.3068C237.893 42.678 236.863 42.8636 235.696 42.8636ZM253.256 19.2273V42.5H251.233V19.2273H253.256ZM264.631 19.2273V42.5H262.608V19.2273H264.631ZM281.04 42.8636C279.411 42.8636 278.002 42.4848 276.812 41.7273C275.623 40.9621 274.703 39.9053 274.051 38.5568C273.407 37.2008 273.085 35.6402 273.085 33.875C273.085 32.1174 273.407 30.5568 274.051 29.1932C274.703 27.822 275.6 26.75 276.744 25.9773C277.896 25.197 279.225 24.8068 280.733 24.8068C281.68 24.8068 282.593 24.9811 283.472 25.3295C284.35 25.6705 285.138 26.197 285.835 26.9091C286.54 27.6136 287.097 28.5038 287.506 29.5795C287.915 30.6477 288.119 31.9129 288.119 33.375V34.375H274.483V32.5909H286.051C286.051 31.4697 285.824 30.4621 285.369 29.5682C284.922 28.6667 284.297 27.9545 283.494 27.4318C282.699 26.9091 281.778 26.6477 280.733 26.6477C279.627 26.6477 278.653 26.9432 277.812 27.5341C276.972 28.125 276.313 28.9053 275.835 29.875C275.366 30.8447 275.127 31.9053 275.119 33.0568V34.125C275.119 35.5114 275.358 36.7235 275.835 37.7614C276.32 38.7917 277.006 39.5909 277.892 40.1591C278.778 40.7273 279.828 41.0114 281.04 41.0114C281.866 41.0114 282.589 40.8826 283.21 40.625C283.839 40.3674 284.366 40.0227 284.79 39.5909C285.222 39.1515 285.547 38.6705 285.767 38.1477L287.688 38.7727C287.422 39.5076 286.987 40.1856 286.381 40.8068C285.782 41.428 285.032 41.928 284.131 42.3068C283.237 42.678 282.206 42.8636 281.04 42.8636ZM309.577 42.5V25.0455H311.543V27.7273H311.69C312.039 26.8485 312.645 26.1402 313.509 25.6023C314.38 25.0568 315.365 24.7841 316.463 24.7841C316.63 24.7841 316.815 24.7879 317.02 24.7955C317.224 24.803 317.395 24.8106 317.531 24.8182V26.875C317.44 26.8598 317.281 26.8371 317.054 26.8068C316.827 26.7765 316.58 26.7614 316.315 26.7614C315.406 26.7614 314.596 26.9545 313.884 27.3409C313.179 27.7197 312.622 28.2462 312.213 28.9205C311.804 29.5947 311.599 30.3636 311.599 31.2273V42.5H309.577ZM331.236 42.8636C329.728 42.8636 328.395 42.4811 327.236 41.7159C326.084 40.9508 325.183 39.8939 324.531 38.5455C323.88 37.1894 323.554 35.625 323.554 33.8523C323.554 32.0644 323.88 30.4924 324.531 29.1364C325.183 27.7727 326.084 26.7121 327.236 25.9545C328.395 25.1894 329.728 24.8068 331.236 24.8068C332.743 24.8068 334.073 25.1894 335.224 25.9545C336.376 26.7197 337.277 27.7803 337.929 29.1364C338.588 30.4924 338.918 32.0644 338.918 33.8523C338.918 35.625 338.592 37.1894 337.94 38.5455C337.289 39.8939 336.384 40.9508 335.224 41.7159C334.073 42.4811 332.743 42.8636 331.236 42.8636ZM331.236 41.0114C332.448 41.0114 333.474 40.6856 334.315 40.0341C335.156 39.3826 335.793 38.5152 336.224 37.4318C336.664 36.3485 336.884 35.1553 336.884 33.8523C336.884 32.5492 336.664 31.3523 336.224 30.2614C335.793 29.1705 335.156 28.2955 334.315 27.6364C333.474 26.9773 332.448 26.6477 331.236 26.6477C330.031 26.6477 329.005 26.9773 328.156 27.6364C327.315 28.2955 326.675 29.1705 326.236 30.2614C325.804 31.3523 325.588 32.5492 325.588 33.8523C325.588 35.1553 325.804 36.3485 326.236 37.4318C326.675 38.5152 327.315 39.3826 328.156 40.0341C328.997 40.6856 330.024 41.0114 331.236 41.0114ZM354.176 42.8636C352.616 42.8636 351.256 42.4735 350.097 41.6932C348.945 40.9129 348.051 39.8447 347.415 38.4886C346.778 37.1326 346.46 35.5871 346.46 33.8523C346.46 32.1023 346.782 30.5455 347.426 29.1818C348.078 27.8182 348.979 26.75 350.131 25.9773C351.282 25.197 352.619 24.8068 354.142 24.8068C355.309 24.8068 356.366 25.0341 357.312 25.4886C358.259 25.9356 359.04 26.5682 359.653 27.3864C360.275 28.197 360.665 29.1439 360.824 30.2273H358.778C358.566 29.2424 358.055 28.4015 357.244 27.7045C356.441 27 355.419 26.6477 354.176 26.6477C353.063 26.6477 352.078 26.9508 351.222 27.5568C350.366 28.1553 349.695 28.9924 349.21 30.0682C348.733 31.1364 348.494 32.375 348.494 33.7841C348.494 35.2008 348.729 36.4545 349.199 37.5455C349.669 38.6288 350.328 39.4773 351.176 40.0909C352.032 40.7045 353.032 41.0114 354.176 41.0114C354.949 41.0114 355.653 40.8674 356.29 40.5795C356.934 40.2841 357.472 39.8674 357.903 39.3295C358.343 38.7917 358.638 38.1515 358.79 37.4091H360.835C360.684 38.4621 360.309 39.4015 359.71 40.2273C359.119 41.0455 358.35 41.6894 357.403 42.1591C356.464 42.6288 355.388 42.8636 354.176 42.8636ZM371.193 31.5909V42.5H369.17V19.2273H371.193V27.7841H371.375C371.784 26.8826 372.417 26.1629 373.273 25.625C374.136 25.0871 375.227 24.8182 376.545 24.8182C377.727 24.8182 378.765 25.0606 379.659 25.5455C380.553 26.0303 381.25 26.7462 381.75 27.6932C382.25 28.6402 382.5 29.8068 382.5 31.1932V42.5H380.466V31.3182C380.466 29.8788 380.064 28.7462 379.261 27.9205C378.466 27.0871 377.39 26.6705 376.034 26.6705C375.102 26.6705 374.273 26.8674 373.545 27.2614C372.818 27.6553 372.242 28.2235 371.818 28.9659C371.402 29.7008 371.193 30.5758 371.193 31.5909ZM396.702 42.8977C395.649 42.8977 394.687 42.6932 393.815 42.2841C392.944 41.8674 392.251 41.2689 391.736 40.4886C391.221 39.7008 390.963 38.7462 390.963 37.625C390.963 36.7614 391.126 36.0341 391.452 35.4432C391.777 34.8523 392.24 34.3674 392.838 33.9886C393.437 33.6098 394.145 33.3106 394.963 33.0909C395.781 32.8712 396.683 32.7008 397.668 32.5795C398.645 32.4583 399.471 32.3523 400.145 32.2614C400.827 32.1705 401.346 32.0265 401.702 31.8295C402.058 31.6326 402.236 31.3144 402.236 30.875V30.4659C402.236 29.2765 401.88 28.3409 401.168 27.6591C400.463 26.9697 399.448 26.625 398.122 26.625C396.865 26.625 395.838 26.9015 395.043 27.4545C394.255 28.0076 393.702 28.6591 393.384 29.4091L391.463 28.7159C391.857 27.7614 392.402 27 393.099 26.4318C393.796 25.8561 394.577 25.4432 395.44 25.1932C396.304 24.9356 397.179 24.8068 398.065 24.8068C398.732 24.8068 399.425 24.8939 400.145 25.0682C400.872 25.2424 401.546 25.5455 402.168 25.9773C402.789 26.4015 403.293 26.9962 403.679 27.7614C404.065 28.5189 404.259 29.4811 404.259 30.6477V42.5H402.236V39.7386H402.111C401.868 40.2538 401.509 40.7538 401.031 41.2386C400.554 41.7235 399.955 42.1212 399.236 42.4318C398.516 42.7424 397.671 42.8977 396.702 42.8977ZM396.974 41.0455C398.05 41.0455 398.982 40.8068 399.77 40.3295C400.558 39.8523 401.164 39.2197 401.588 38.4318C402.02 37.6364 402.236 36.7614 402.236 35.8068V33.2841C402.084 33.428 401.83 33.5568 401.474 33.6705C401.126 33.7841 400.721 33.8864 400.259 33.9773C399.804 34.0606 399.349 34.1326 398.895 34.1932C398.44 34.2538 398.031 34.3068 397.668 34.3523C396.683 34.4735 395.842 34.6629 395.145 34.9205C394.448 35.178 393.914 35.5341 393.543 35.9886C393.171 36.4356 392.986 37.0114 392.986 37.7159C392.986 38.7765 393.365 39.5985 394.122 40.1818C394.88 40.7576 395.83 41.0455 396.974 41.0455Z" fill="#C8236A"/>
</svg>
