<svg width="271" height="121" viewBox="0 0 271 121" fill="none" xmlns="http://www.w3.org/2000/svg">
<path d="M187.627 0.5C190.96 0.500047 192.12 1.14031 192.602 2.1084C192.864 2.6348 192.968 3.32869 192.993 4.25586C193.019 5.1967 192.967 6.24394 192.967 7.54102C192.967 8.80863 192.966 9.76962 192.879 10.5195C192.792 11.268 192.626 11.7234 192.359 12.0293C192.098 12.3294 191.676 12.5584 190.909 12.7051C190.138 12.8526 189.084 12.9053 187.627 12.9053C184.676 12.9053 182.065 13.326 180.177 14.4414C178.245 15.5823 177.115 17.4254 177.115 20.1084V46.9189C177.115 51.7918 175.1 55.4195 172.088 57.8398C169.063 60.2702 165.007 61.4999 160.93 61.5C156.852 61.5 152.796 60.2703 149.771 57.8398C146.758 55.4195 144.743 51.7917 144.743 46.9189V20.1084C144.743 16.3587 141.041 12.9053 134.231 12.9053C127.422 12.9054 123.721 16.3588 123.721 20.1074V56.9736C123.721 57.8197 123.355 58.9459 122.412 59.8613C121.478 60.7681 119.942 61.5 117.546 61.5C115.15 61.5 113.614 60.7682 112.68 59.8613C111.737 58.9459 111.372 57.8197 111.372 56.9736V20.1084C111.372 16.3587 107.67 12.9053 100.86 12.9053C94.0506 12.9053 90.3486 16.3587 90.3486 20.1074V56.9736C90.3486 57.8197 89.9832 58.9459 89.04 59.8613C88.1058 60.768 86.5701 61.4999 84.1748 61.5C81.7791 61.5 80.2429 60.7674 79.3086 59.8604C78.3655 58.9447 78 57.8187 78 56.9727V16.7568C78 11.9165 80.403 7.87097 84.4619 5.01758C88.5306 2.15739 94.2636 0.5 100.86 0.5C107.447 0.500028 111.519 2.15195 113.931 3.7666C115.139 4.57552 115.938 5.38015 116.432 5.97461C116.678 6.27193 116.848 6.5175 116.955 6.68457C117.009 6.7681 117.047 6.83176 117.07 6.87305C117.082 6.89363 117.09 6.90912 117.095 6.91797C117.097 6.92136 117.097 6.92429 117.098 6.92578H117.099L117.546 7.82324L117.992 6.92578C117.993 6.92635 117.993 6.92672 117.993 6.92676C117.994 6.92542 117.996 6.92241 117.998 6.91797C118.003 6.90908 118.011 6.89358 118.022 6.87305C118.046 6.83173 118.083 6.76782 118.137 6.68457C118.244 6.51745 118.415 6.27201 118.662 5.97461C119.156 5.38016 119.955 4.57534 121.164 3.7666C123.578 2.15182 127.652 0.5 134.238 0.5C140.835 0.500011 146.568 2.1574 150.637 5.01758C154.696 7.87096 157.099 11.9166 157.099 16.7568V46.9189L157.092 48.5928V48.5947C157.092 49.2329 157.279 50.1792 157.854 50.9805C158.446 51.8074 159.431 52.4463 160.93 52.4463C162.428 52.4462 163.412 51.8073 164.005 50.9805C164.579 50.1792 164.767 49.2329 164.767 48.5947V16.7568C164.767 9.88586 168.768 5.84157 173.66 3.4873C178.574 1.12266 184.333 0.5 187.627 0.5Z" fill="#1F1D3D" stroke="#1F1D3D" stroke-linecap="round"/>
<path d="M2.67045 113V95.5455H4.63636V98.2273H4.81818C5.16667 97.3258 5.74621 96.6174 6.55682 96.1023C7.375 95.5795 8.35606 95.3182 9.5 95.3182C10.7045 95.3182 11.6932 95.6023 12.4659 96.1705C13.2462 96.7311 13.8295 97.5038 14.2159 98.4886H14.3636C14.7576 97.5189 15.3977 96.75 16.2841 96.1818C17.178 95.6061 18.2614 95.3182 19.5341 95.3182C21.1553 95.3182 22.4356 95.8295 23.375 96.8523C24.3144 97.8674 24.7841 99.3523 24.7841 101.307V113H22.7614V101.307C22.7614 99.928 22.4091 98.8939 21.7045 98.2045C21 97.5152 20.072 97.1705 18.9205 97.1705C17.5871 97.1705 16.5606 97.5795 15.8409 98.3977C15.1212 99.2159 14.7614 100.254 14.7614 101.511V113H12.6932V101.125C12.6932 99.9432 12.3636 98.9886 11.7045 98.2614C11.0455 97.5341 10.1174 97.1705 8.92045 97.1705C8.11742 97.1705 7.39394 97.3674 6.75 97.7614C6.11364 98.1553 5.60985 98.7045 5.23864 99.4091C4.875 100.106 4.69318 100.909 4.69318 101.818V113H2.67045ZM39.0142 113.398C37.9612 113.398 36.9991 113.193 36.1278 112.784C35.2566 112.367 34.5634 111.769 34.0483 110.989C33.5331 110.201 33.2756 109.246 33.2756 108.125C33.2756 107.261 33.4384 106.534 33.7642 105.943C34.09 105.352 34.5521 104.867 35.1506 104.489C35.7491 104.11 36.4574 103.811 37.2756 103.591C38.0938 103.371 38.9953 103.201 39.9801 103.08C40.9574 102.958 41.7831 102.852 42.4574 102.761C43.1392 102.67 43.6581 102.527 44.0142 102.33C44.3703 102.133 44.5483 101.814 44.5483 101.375V100.966C44.5483 99.7765 44.1922 98.8409 43.4801 98.1591C42.7756 97.4697 41.7604 97.125 40.4347 97.125C39.1771 97.125 38.1506 97.4015 37.3551 97.9545C36.5672 98.5076 36.0142 99.1591 35.696 99.9091L33.7756 99.2159C34.1695 98.2614 34.715 97.5 35.4119 96.9318C36.1089 96.3561 36.8892 95.9432 37.7528 95.6932C38.6165 95.4356 39.4915 95.3068 40.3778 95.3068C41.0445 95.3068 41.7377 95.3939 42.4574 95.5682C43.1847 95.7424 43.8589 96.0455 44.4801 96.4773C45.1013 96.9015 45.6051 97.4962 45.9915 98.2614C46.3778 99.0189 46.571 99.9811 46.571 101.148V113H44.5483V110.239H44.4233C44.1809 110.754 43.821 111.254 43.3438 111.739C42.8665 112.223 42.268 112.621 41.5483 112.932C40.8286 113.242 39.9839 113.398 39.0142 113.398ZM39.2869 111.545C40.3627 111.545 41.2945 111.307 42.0824 110.83C42.8703 110.352 43.4763 109.72 43.9006 108.932C44.3324 108.136 44.5483 107.261 44.5483 106.307V103.784C44.3968 103.928 44.143 104.057 43.7869 104.17C43.4384 104.284 43.0331 104.386 42.571 104.477C42.1165 104.561 41.6619 104.633 41.2074 104.693C40.7528 104.754 40.3438 104.807 39.9801 104.852C38.9953 104.973 38.1544 105.163 37.4574 105.42C36.7604 105.678 36.2263 106.034 35.8551 106.489C35.4839 106.936 35.2983 107.511 35.2983 108.216C35.2983 109.277 35.6771 110.098 36.4347 110.682C37.1922 111.258 38.143 111.545 39.2869 111.545ZM55.9517 113V95.5455H57.9176V98.2273H58.0653C58.4138 97.3485 59.0199 96.6402 59.8835 96.1023C60.7547 95.5568 61.7396 95.2841 62.8381 95.2841C63.0047 95.2841 63.1903 95.2879 63.3949 95.2955C63.5994 95.303 63.7699 95.3106 63.9062 95.3182V97.375C63.8153 97.3598 63.6563 97.3371 63.429 97.3068C63.2017 97.2765 62.9555 97.2614 62.6903 97.2614C61.7813 97.2614 60.9706 97.4545 60.2585 97.8409C59.554 98.2197 58.9972 98.7462 58.5881 99.4205C58.179 100.095 57.9744 100.864 57.9744 101.727V113H55.9517ZM77.6449 113.364C76.0843 113.364 74.7244 112.973 73.5653 112.193C72.4138 111.413 71.5199 110.345 70.8835 108.989C70.2472 107.633 69.929 106.087 69.929 104.352C69.929 102.602 70.2509 101.045 70.8949 99.6818C71.5464 98.3182 72.4479 97.25 73.5994 96.4773C74.7509 95.697 76.0881 95.3068 77.6108 95.3068C78.7775 95.3068 79.8343 95.5341 80.7812 95.9886C81.7282 96.4356 82.5085 97.0682 83.1222 97.8864C83.7434 98.697 84.1335 99.6439 84.2926 100.727H82.2472C82.035 99.7424 81.5237 98.9015 80.7131 98.2045C79.91 97.5 78.8873 97.1477 77.6449 97.1477C76.5313 97.1477 75.5464 97.4508 74.6903 98.0568C73.8343 98.6553 73.1638 99.4924 72.679 100.568C72.2017 101.636 71.9631 102.875 71.9631 104.284C71.9631 105.701 72.1979 106.955 72.6676 108.045C73.1373 109.129 73.7964 109.977 74.6449 110.591C75.5009 111.205 76.5009 111.511 77.6449 111.511C78.4176 111.511 79.1222 111.367 79.7585 111.08C80.4025 110.784 80.9403 110.367 81.3722 109.83C81.8116 109.292 82.107 108.652 82.2585 107.909H84.304C84.1525 108.962 83.7775 109.902 83.179 110.727C82.5881 111.545 81.8191 112.189 80.8722 112.659C79.9328 113.129 78.857 113.364 77.6449 113.364ZM99.696 113.364C98.0672 113.364 96.6581 112.985 95.4688 112.227C94.2794 111.462 93.3589 110.405 92.7074 109.057C92.0634 107.701 91.7415 106.14 91.7415 104.375C91.7415 102.617 92.0634 101.057 92.7074 99.6932C93.3589 98.322 94.2566 97.25 95.4006 96.4773C96.5521 95.697 97.8816 95.3068 99.3892 95.3068C100.336 95.3068 101.249 95.4811 102.128 95.8295C103.007 96.1705 103.795 96.697 104.491 97.4091C105.196 98.1136 105.753 99.0038 106.162 100.08C106.571 101.148 106.776 102.413 106.776 103.875V104.875H93.1392V103.091H104.707C104.707 101.97 104.48 100.962 104.026 100.068C103.579 99.1667 102.954 98.4545 102.151 97.9318C101.355 97.4091 100.435 97.1477 99.3892 97.1477C98.2831 97.1477 97.3097 97.4432 96.4688 98.0341C95.6278 98.625 94.9688 99.4053 94.4915 100.375C94.0218 101.345 93.7831 102.405 93.7756 103.557V104.625C93.7756 106.011 94.0142 107.223 94.4915 108.261C94.9763 109.292 95.6619 110.091 96.5483 110.659C97.4347 111.227 98.4839 111.511 99.696 111.511C100.522 111.511 101.245 111.383 101.866 111.125C102.495 110.867 103.022 110.523 103.446 110.091C103.878 109.652 104.204 109.17 104.423 108.648L106.344 109.273C106.079 110.008 105.643 110.686 105.037 111.307C104.438 111.928 103.688 112.428 102.787 112.807C101.893 113.178 100.863 113.364 99.696 113.364ZM117.256 89.7273V113H115.233V89.7273H117.256ZM128.631 89.7273V113H126.608V89.7273H128.631ZM145.04 113.364C143.411 113.364 142.002 112.985 140.812 112.227C139.623 111.462 138.703 110.405 138.051 109.057C137.407 107.701 137.085 106.14 137.085 104.375C137.085 102.617 137.407 101.057 138.051 99.6932C138.703 98.322 139.6 97.25 140.744 96.4773C141.896 95.697 143.225 95.3068 144.733 95.3068C145.68 95.3068 146.593 95.4811 147.472 95.8295C148.35 96.1705 149.138 96.697 149.835 97.4091C150.54 98.1136 151.097 99.0038 151.506 100.08C151.915 101.148 152.119 102.413 152.119 103.875V104.875H138.483V103.091H150.051C150.051 101.97 149.824 100.962 149.369 100.068C148.922 99.1667 148.297 98.4545 147.494 97.9318C146.699 97.4091 145.778 97.1477 144.733 97.1477C143.627 97.1477 142.653 97.4432 141.812 98.0341C140.972 98.625 140.313 99.4053 139.835 100.375C139.366 101.345 139.127 102.405 139.119 103.557V104.625C139.119 106.011 139.358 107.223 139.835 108.261C140.32 109.292 141.006 110.091 141.892 110.659C142.778 111.227 143.828 111.511 145.04 111.511C145.866 111.511 146.589 111.383 147.21 111.125C147.839 110.867 148.366 110.523 148.79 110.091C149.222 109.652 149.547 109.17 149.767 108.648L151.688 109.273C151.422 110.008 150.987 110.686 150.381 111.307C149.782 111.928 149.032 112.428 148.131 112.807C147.237 113.178 146.206 113.364 145.04 113.364ZM173.577 113V95.5455H175.543V98.2273H175.69C176.039 97.3485 176.645 96.6402 177.509 96.1023C178.38 95.5568 179.365 95.2841 180.463 95.2841C180.63 95.2841 180.815 95.2879 181.02 95.2955C181.224 95.303 181.395 95.3106 181.531 95.3182V97.375C181.44 97.3598 181.281 97.3371 181.054 97.3068C180.827 97.2765 180.58 97.2614 180.315 97.2614C179.406 97.2614 178.596 97.4545 177.884 97.8409C177.179 98.2197 176.622 98.7462 176.213 99.4205C175.804 100.095 175.599 100.864 175.599 101.727V113H173.577ZM195.236 113.364C193.728 113.364 192.395 112.981 191.236 112.216C190.084 111.451 189.183 110.394 188.531 109.045C187.88 107.689 187.554 106.125 187.554 104.352C187.554 102.564 187.88 100.992 188.531 99.6364C189.183 98.2727 190.084 97.2121 191.236 96.4545C192.395 95.6894 193.728 95.3068 195.236 95.3068C196.743 95.3068 198.073 95.6894 199.224 96.4545C200.376 97.2197 201.277 98.2803 201.929 99.6364C202.588 100.992 202.918 102.564 202.918 104.352C202.918 106.125 202.592 107.689 201.94 109.045C201.289 110.394 200.384 111.451 199.224 112.216C198.073 112.981 196.743 113.364 195.236 113.364ZM195.236 111.511C196.448 111.511 197.474 111.186 198.315 110.534C199.156 109.883 199.793 109.015 200.224 107.932C200.664 106.848 200.884 105.655 200.884 104.352C200.884 103.049 200.664 101.852 200.224 100.761C199.793 99.6705 199.156 98.7955 198.315 98.1364C197.474 97.4773 196.448 97.1477 195.236 97.1477C194.031 97.1477 193.005 97.4773 192.156 98.1364C191.315 98.7955 190.675 99.6705 190.236 100.761C189.804 101.852 189.588 103.049 189.588 104.352C189.588 105.655 189.804 106.848 190.236 107.932C190.675 109.015 191.315 109.883 192.156 110.534C192.997 111.186 194.024 111.511 195.236 111.511ZM218.176 113.364C216.616 113.364 215.256 112.973 214.097 112.193C212.945 111.413 212.051 110.345 211.415 108.989C210.778 107.633 210.46 106.087 210.46 104.352C210.46 102.602 210.782 101.045 211.426 99.6818C212.078 98.3182 212.979 97.25 214.131 96.4773C215.282 95.697 216.619 95.3068 218.142 95.3068C219.309 95.3068 220.366 95.5341 221.312 95.9886C222.259 96.4356 223.04 97.0682 223.653 97.8864C224.275 98.697 224.665 99.6439 224.824 100.727H222.778C222.566 99.7424 222.055 98.9015 221.244 98.2045C220.441 97.5 219.419 97.1477 218.176 97.1477C217.063 97.1477 216.078 97.4508 215.222 98.0568C214.366 98.6553 213.695 99.4924 213.21 100.568C212.733 101.636 212.494 102.875 212.494 104.284C212.494 105.701 212.729 106.955 213.199 108.045C213.669 109.129 214.328 109.977 215.176 110.591C216.032 111.205 217.032 111.511 218.176 111.511C218.949 111.511 219.653 111.367 220.29 111.08C220.934 110.784 221.472 110.367 221.903 109.83C222.343 109.292 222.638 108.652 222.79 107.909H224.835C224.684 108.962 224.309 109.902 223.71 110.727C223.119 111.545 222.35 112.189 221.403 112.659C220.464 113.129 219.388 113.364 218.176 113.364ZM235.193 102.091V113H233.17V89.7273H235.193V98.2841H235.375C235.784 97.3826 236.417 96.6629 237.273 96.125C238.136 95.5871 239.227 95.3182 240.545 95.3182C241.727 95.3182 242.765 95.5606 243.659 96.0455C244.553 96.5303 245.25 97.2462 245.75 98.1932C246.25 99.1402 246.5 100.307 246.5 101.693V113H244.466V101.818C244.466 100.379 244.064 99.2462 243.261 98.4205C242.466 97.5871 241.39 97.1705 240.034 97.1705C239.102 97.1705 238.273 97.3674 237.545 97.7614C236.818 98.1553 236.242 98.7235 235.818 99.4659C235.402 100.201 235.193 101.076 235.193 102.091ZM260.702 113.398C259.649 113.398 258.687 113.193 257.815 112.784C256.944 112.367 256.251 111.769 255.736 110.989C255.221 110.201 254.963 109.246 254.963 108.125C254.963 107.261 255.126 106.534 255.452 105.943C255.777 105.352 256.24 104.867 256.838 104.489C257.437 104.11 258.145 103.811 258.963 103.591C259.781 103.371 260.683 103.201 261.668 103.08C262.645 102.958 263.471 102.852 264.145 102.761C264.827 102.67 265.346 102.527 265.702 102.33C266.058 102.133 266.236 101.814 266.236 101.375V100.966C266.236 99.7765 265.88 98.8409 265.168 98.1591C264.463 97.4697 263.448 97.125 262.122 97.125C260.865 97.125 259.838 97.4015 259.043 97.9545C258.255 98.5076 257.702 99.1591 257.384 99.9091L255.463 99.2159C255.857 98.2614 256.402 97.5 257.099 96.9318C257.796 96.3561 258.577 95.9432 259.44 95.6932C260.304 95.4356 261.179 95.3068 262.065 95.3068C262.732 95.3068 263.425 95.3939 264.145 95.5682C264.872 95.7424 265.546 96.0455 266.168 96.4773C266.789 96.9015 267.293 97.4962 267.679 98.2614C268.065 99.0189 268.259 99.9811 268.259 101.148V113H266.236V110.239H266.111C265.868 110.754 265.509 111.254 265.031 111.739C264.554 112.223 263.955 112.621 263.236 112.932C262.516 113.242 261.671 113.398 260.702 113.398ZM260.974 111.545C262.05 111.545 262.982 111.307 263.77 110.83C264.558 110.352 265.164 109.72 265.588 108.932C266.02 108.136 266.236 107.261 266.236 106.307V103.784C266.084 103.928 265.83 104.057 265.474 104.17C265.126 104.284 264.721 104.386 264.259 104.477C263.804 104.561 263.349 104.633 262.895 104.693C262.44 104.754 262.031 104.807 261.668 104.852C260.683 104.973 259.842 105.163 259.145 105.42C258.448 105.678 257.914 106.034 257.543 106.489C257.171 106.936 256.986 107.511 256.986 108.216C256.986 109.277 257.365 110.098 258.122 110.682C258.88 111.258 259.83 111.545 260.974 111.545Z" fill="#1F1D3D"/>
</svg>
