<svg width="229" height="29" viewBox="0 0 229 29" fill="none" xmlns="http://www.w3.org/2000/svg">
<path d="M16.1221 4.53125V4.53223V4.53125ZM17.0186 4.53125L17.0244 4.52246C17.0316 4.50959 17.0444 4.48717 17.0635 4.45703C17.1019 4.3963 17.1657 4.30329 17.2598 4.18848C17.4479 3.95894 17.7585 3.64136 18.2334 3.31934C19.1784 2.67854 20.8053 2.00006 23.4775 2C26.1603 2 28.4687 2.68362 30.0918 3.83984C31.7052 4.98929 32.6445 6.60293 32.6445 8.52734V21.1758L32.6416 21.877V21.8779C32.6416 22.1904 32.7298 22.6502 33.0098 23.0459C33.3081 23.4673 33.8036 23.7842 34.5225 23.7842C35.2413 23.7842 35.7369 23.4673 36.0352 23.0459C36.3151 22.6502 36.4033 22.1904 36.4033 21.8779V8.52734C36.4033 5.78782 37.9638 4.1766 39.9199 3.22266C41.8987 2.25772 44.2319 2.00004 45.5693 2C46.9433 2 47.2487 2.27354 47.3652 2.51074C47.445 2.67308 47.4867 2.91186 47.4971 3.29199C47.5078 3.68567 47.4863 4.09511 47.4863 4.66211C47.4863 5.20035 47.4859 5.58446 47.4521 5.87891C47.4185 6.17225 47.3586 6.29376 47.3047 6.35645C47.2565 6.41237 47.1549 6.48795 46.8711 6.54297C46.5821 6.59894 46.1703 6.62207 45.5693 6.62207C44.3298 6.6221 43.1846 6.79894 42.335 7.30762C41.4427 7.84187 40.9268 8.71232 40.9268 9.93262V21.1758C40.9267 23.1322 40.1321 24.5713 38.9531 25.5312C37.7619 26.501 36.1532 27 34.5225 27C32.8916 27 31.2821 26.5011 30.0908 25.5312C28.912 24.5713 28.1182 23.132 28.1182 21.1758V9.93262C28.1182 8.13409 26.3795 6.62218 23.4756 6.62207C20.5717 6.62207 18.8332 8.13359 18.833 9.93164V25.3926C18.8329 25.6732 18.7104 26.0704 18.3779 26.3975C18.0546 26.7155 17.4968 27 16.5703 27C15.6441 26.9999 15.087 26.7154 14.7637 26.3975C14.4312 26.0704 14.3087 25.6732 14.3086 25.3926V9.93262C14.3086 8.13402 12.5701 6.62207 9.66602 6.62207C6.7623 6.62216 5.02367 8.13365 5.02344 9.93164V25.3926C5.02331 25.6732 4.90081 26.0704 4.56836 26.3975C4.24497 26.7153 3.68794 27 2.76172 27C1.83516 27 1.2784 26.7146 0.955078 26.3965C0.622511 26.0692 0.5 25.6722 0.5 25.3916V8.52734C0.5 6.603 1.43844 4.98928 3.05176 3.83984C4.67478 2.68356 6.98329 2.00005 9.66602 2C12.3385 2 13.9648 2.6786 14.9092 3.31934C15.3837 3.64134 15.6939 3.95898 15.8818 4.18848C15.9759 4.30335 16.0398 4.39633 16.0781 4.45703C16.0973 4.48734 16.1101 4.50965 16.1172 4.52246C16.119 4.5258 16.121 4.52824 16.1221 4.53027V4.53125C16.1229 4.53271 16.1237 4.53453 16.124 4.53516L16.5703 5.44434L17.0186 4.53125ZM17.0186 4.53125V4.5332V4.53418L17.0176 4.53516L17.0186 4.53125Z" fill="#FEF7ED" stroke="#FEF7ED" stroke-linecap="round"/>
<path d="M61.7131 23V9.90909H64.1591V12.0398H64.321C64.5938 11.3182 65.0398 10.7557 65.6591 10.3523C66.2784 9.94318 67.0199 9.73864 67.8835 9.73864C68.7585 9.73864 69.4915 9.94318 70.0824 10.3523C70.679 10.7614 71.1193 11.3239 71.4034 12.0398H71.5398C71.8523 11.3409 72.3494 10.7841 73.0312 10.3693C73.7131 9.94886 74.5256 9.73864 75.4688 9.73864C76.6562 9.73864 77.625 10.1108 78.375 10.8551C79.1307 11.5994 79.5085 12.7216 79.5085 14.2216V23H76.9602V14.4602C76.9602 13.5739 76.7188 12.9318 76.2358 12.5341C75.7528 12.1364 75.1761 11.9375 74.5057 11.9375C73.6761 11.9375 73.0312 12.1932 72.571 12.7045C72.1108 13.2102 71.8807 13.8608 71.8807 14.6562V23H69.3409V14.2983C69.3409 13.5881 69.1193 13.017 68.6761 12.5852C68.233 12.1534 67.6563 11.9375 66.946 11.9375C66.4631 11.9375 66.017 12.0653 65.608 12.321C65.2045 12.571 64.8778 12.9205 64.6278 13.3693C64.3835 13.8182 64.2614 14.3381 64.2614 14.929V23H61.7131ZM86.7337 23.2898C85.9041 23.2898 85.1541 23.1364 84.4837 22.8295C83.8132 22.517 83.282 22.0653 82.8899 21.4744C82.5036 20.8835 82.3104 20.1591 82.3104 19.3011C82.3104 18.5625 82.4524 17.9545 82.7365 17.4773C83.0206 17 83.4041 16.6222 83.8871 16.3438C84.37 16.0653 84.9098 15.8551 85.5064 15.7131C86.103 15.571 86.7109 15.4631 87.3303 15.3892C88.1143 15.2983 88.7507 15.2244 89.2393 15.1676C89.728 15.1051 90.0831 15.0057 90.3047 14.8693C90.5263 14.733 90.6371 14.5114 90.6371 14.2045V14.1449C90.6371 13.4006 90.4268 12.8239 90.0064 12.4148C89.5916 12.0057 88.9723 11.8011 88.1484 11.8011C87.2905 11.8011 86.6143 11.9915 86.12 12.3722C85.6314 12.7472 85.2933 13.1648 85.1058 13.625L82.7109 13.0795C82.995 12.2841 83.4098 11.642 83.9553 11.1534C84.5064 10.6591 85.1399 10.3011 85.8558 10.0795C86.5717 9.85227 87.3246 9.73864 88.1143 9.73864C88.6371 9.73864 89.1911 9.80114 89.7763 9.92614C90.3672 10.0455 90.9183 10.267 91.4297 10.5909C91.9467 10.9148 92.37 11.3778 92.6996 11.9801C93.0291 12.5767 93.1939 13.3523 93.1939 14.3068V23H90.7053V21.2102H90.603C90.4382 21.5398 90.1911 21.8636 89.8615 22.1818C89.532 22.5 89.1087 22.7642 88.5916 22.9744C88.0746 23.1847 87.4553 23.2898 86.7337 23.2898ZM87.2876 21.2443C87.9922 21.2443 88.5945 21.1051 89.0945 20.8267C89.6001 20.5483 89.9837 20.1847 90.245 19.7358C90.5121 19.2812 90.6456 18.7955 90.6456 18.2784V16.5909C90.5547 16.6818 90.3786 16.767 90.1172 16.8466C89.8615 16.9205 89.5689 16.9858 89.2393 17.0426C88.9098 17.0937 88.5888 17.142 88.2763 17.1875C87.9638 17.2273 87.7024 17.2614 87.4922 17.2898C86.9979 17.3523 86.5462 17.4574 86.1371 17.6051C85.7337 17.7528 85.4098 17.9659 85.1655 18.2443C84.9268 18.517 84.8075 18.8807 84.8075 19.3352C84.8075 19.9659 85.0405 20.4432 85.5064 20.767C85.9723 21.0852 86.5661 21.2443 87.2876 21.2443ZM96.5881 23V9.90909H99.0511V11.9886H99.1875C99.4261 11.2841 99.8466 10.7301 100.449 10.3267C101.057 9.91761 101.744 9.71307 102.511 9.71307C102.67 9.71307 102.858 9.71875 103.074 9.73011C103.295 9.74148 103.469 9.75568 103.594 9.77273V12.2102C103.491 12.1818 103.31 12.1506 103.048 12.1165C102.787 12.0767 102.526 12.0568 102.264 12.0568C101.662 12.0568 101.125 12.1847 100.653 12.4403C100.188 12.6903 99.8182 13.0398 99.5455 13.4886C99.2727 13.9318 99.1364 14.4375 99.1364 15.0057V23H96.5881ZM110.844 23.2642C109.577 23.2642 108.487 22.9773 107.572 22.4034C106.663 21.8239 105.964 21.0256 105.475 20.0085C104.987 18.9915 104.742 17.8267 104.742 16.5142C104.742 15.1847 104.992 14.0114 105.492 12.9943C105.992 11.9716 106.697 11.1733 107.606 10.5994C108.515 10.0256 109.586 9.73864 110.819 9.73864C111.813 9.73864 112.7 9.9233 113.478 10.2926C114.256 10.6562 114.884 11.1676 115.362 11.8267C115.844 12.4858 116.131 13.2557 116.222 14.1364H113.742C113.606 13.5227 113.293 12.9943 112.805 12.5511C112.322 12.108 111.674 11.8864 110.862 11.8864C110.151 11.8864 109.529 12.0739 108.995 12.4489C108.467 12.8182 108.055 13.3466 107.759 14.0341C107.464 14.7159 107.316 15.5227 107.316 16.4545C107.316 17.4091 107.461 18.233 107.751 18.9261C108.04 19.6193 108.45 20.1562 108.978 20.5369C109.512 20.9176 110.14 21.108 110.862 21.108C111.344 21.108 111.782 21.0199 112.174 20.8438C112.572 20.6619 112.904 20.4034 113.171 20.0682C113.444 19.733 113.634 19.3295 113.742 18.858H116.222C116.131 19.7045 115.856 20.4602 115.396 21.125C114.935 21.7898 114.319 22.3125 113.546 22.6932C112.779 23.0739 111.879 23.2642 110.844 23.2642ZM124.589 23.2642C123.3 23.2642 122.189 22.9886 121.257 22.4375C120.331 21.8807 119.615 21.0994 119.109 20.0938C118.609 19.0824 118.359 17.8977 118.359 16.5398C118.359 15.1989 118.609 14.017 119.109 12.9943C119.615 11.9716 120.32 11.1733 121.223 10.5994C122.132 10.0256 123.195 9.73864 124.411 9.73864C125.149 9.73864 125.865 9.8608 126.558 10.1051C127.251 10.3494 127.874 10.733 128.425 11.2557C128.976 11.7784 129.411 12.4574 129.729 13.2926C130.047 14.1222 130.206 15.1307 130.206 16.3182V17.2216H119.8V15.3125H127.709C127.709 14.642 127.572 14.0483 127.3 13.5312C127.027 13.0085 126.643 12.5966 126.149 12.2955C125.661 11.9943 125.087 11.8438 124.428 11.8438C123.712 11.8438 123.087 12.0199 122.553 12.3722C122.024 12.7187 121.615 13.1733 121.325 13.7358C121.041 14.2926 120.899 14.8977 120.899 15.5511V17.0426C120.899 17.9176 121.053 18.6619 121.359 19.2756C121.672 19.8892 122.107 20.358 122.663 20.6818C123.22 21 123.871 21.1591 124.615 21.1591C125.098 21.1591 125.538 21.0909 125.936 20.9545C126.334 20.8125 126.678 20.6023 126.967 20.3239C127.257 20.0455 127.479 19.7017 127.632 19.2926L130.044 19.7273C129.851 20.4375 129.504 21.0597 129.004 21.5938C128.51 22.1222 127.888 22.5341 127.138 22.8295C126.393 23.1193 125.544 23.2642 124.589 23.2642ZM135.582 5.54545V23H133.033V5.54545H135.582ZM141.558 5.54545V23H139.01V5.54545H141.558ZM150.629 23.2642C149.339 23.2642 148.228 22.9886 147.296 22.4375C146.37 21.8807 145.654 21.0994 145.148 20.0938C144.648 19.0824 144.398 17.8977 144.398 16.5398C144.398 15.1989 144.648 14.017 145.148 12.9943C145.654 11.9716 146.359 11.1733 147.262 10.5994C148.171 10.0256 149.234 9.73864 150.45 9.73864C151.188 9.73864 151.904 9.8608 152.597 10.1051C153.29 10.3494 153.913 10.733 154.464 11.2557C155.015 11.7784 155.45 12.4574 155.768 13.2926C156.086 14.1222 156.245 15.1307 156.245 16.3182V17.2216H145.839V15.3125H153.748C153.748 14.642 153.612 14.0483 153.339 13.5312C153.066 13.0085 152.683 12.5966 152.188 12.2955C151.7 11.9943 151.126 11.8438 150.467 11.8438C149.751 11.8438 149.126 12.0199 148.592 12.3722C148.063 12.7187 147.654 13.1733 147.364 13.7358C147.08 14.2926 146.938 14.8977 146.938 15.5511V17.0426C146.938 17.9176 147.092 18.6619 147.398 19.2756C147.711 19.8892 148.146 20.358 148.702 20.6818C149.259 21 149.91 21.1591 150.654 21.1591C151.137 21.1591 151.577 21.0909 151.975 20.9545C152.373 20.8125 152.717 20.6023 153.006 20.3239C153.296 20.0455 153.518 19.7017 153.671 19.2926L156.083 19.7273C155.89 20.4375 155.543 21.0597 155.043 21.5938C154.549 22.1222 153.927 22.5341 153.177 22.8295C152.433 23.1193 151.583 23.2642 150.629 23.2642ZM165.424 23V9.90909H167.887V11.9886H168.023C168.262 11.2841 168.683 10.7301 169.285 10.3267C169.893 9.91761 170.58 9.71307 171.347 9.71307C171.506 9.71307 171.694 9.71875 171.91 9.73011C172.131 9.74148 172.305 9.75568 172.43 9.77273V12.2102C172.327 12.1818 172.146 12.1506 171.884 12.1165C171.623 12.0767 171.362 12.0568 171.1 12.0568C170.498 12.0568 169.961 12.1847 169.489 12.4403C169.023 12.6903 168.654 13.0398 168.381 13.4886C168.109 13.9318 167.972 14.4375 167.972 15.0057V23H165.424ZM179.68 23.2642C178.453 23.2642 177.382 22.983 176.467 22.4205C175.553 21.858 174.842 21.071 174.337 20.0597C173.831 19.0483 173.578 17.8665 173.578 16.5142C173.578 15.1562 173.831 13.9687 174.337 12.9517C174.842 11.9347 175.553 11.1449 176.467 10.5824C177.382 10.0199 178.453 9.73864 179.68 9.73864C180.908 9.73864 181.979 10.0199 182.893 10.5824C183.808 11.1449 184.518 11.9347 185.024 12.9517C185.53 13.9687 185.783 15.1562 185.783 16.5142C185.783 17.8665 185.53 19.0483 185.024 20.0597C184.518 21.071 183.808 21.858 182.893 22.4205C181.979 22.983 180.908 23.2642 179.68 23.2642ZM179.689 21.125C180.484 21.125 181.143 20.9148 181.666 20.4943C182.189 20.0739 182.575 19.5142 182.825 18.8153C183.081 18.1165 183.209 17.3466 183.209 16.5057C183.209 15.6705 183.081 14.9034 182.825 14.2045C182.575 13.5 182.189 12.9347 181.666 12.5085C181.143 12.0824 180.484 11.8693 179.689 11.8693C178.888 11.8693 178.223 12.0824 177.695 12.5085C177.172 12.9347 176.783 13.5 176.527 14.2045C176.277 14.9034 176.152 15.6705 176.152 16.5057C176.152 17.3466 176.277 18.1165 176.527 18.8153C176.783 19.5142 177.172 20.0739 177.695 20.4943C178.223 20.9148 178.888 21.125 179.689 21.125ZM194.141 23.2642C192.874 23.2642 191.783 22.9773 190.869 22.4034C189.96 21.8239 189.261 21.0256 188.772 20.0085C188.283 18.9915 188.039 17.8267 188.039 16.5142C188.039 15.1847 188.289 14.0114 188.789 12.9943C189.289 11.9716 189.994 11.1733 190.903 10.5994C191.812 10.0256 192.883 9.73864 194.116 9.73864C195.11 9.73864 195.996 9.9233 196.775 10.2926C197.553 10.6562 198.181 11.1676 198.658 11.8267C199.141 12.4858 199.428 13.2557 199.519 14.1364H197.039C196.903 13.5227 196.59 12.9943 196.102 12.5511C195.619 12.108 194.971 11.8864 194.158 11.8864C193.448 11.8864 192.826 12.0739 192.292 12.4489C191.763 12.8182 191.352 13.3466 191.056 14.0341C190.761 14.7159 190.613 15.5227 190.613 16.4545C190.613 17.4091 190.758 18.233 191.048 18.9261C191.337 19.6193 191.746 20.1562 192.275 20.5369C192.809 20.9176 193.437 21.108 194.158 21.108C194.641 21.108 195.079 21.0199 195.471 20.8438C195.869 20.6619 196.201 20.4034 196.468 20.0682C196.741 19.733 196.931 19.3295 197.039 18.858H199.519C199.428 19.7045 199.153 20.4602 198.692 21.125C198.232 21.7898 197.616 22.3125 196.843 22.6932C196.076 23.0739 195.175 23.2642 194.141 23.2642ZM204.793 15.2273V23H202.244V5.54545H204.759V12.0398H204.92C205.227 11.3352 205.696 10.7756 206.327 10.3608C206.957 9.94602 207.781 9.73864 208.798 9.73864C209.696 9.73864 210.48 9.9233 211.151 10.2926C211.827 10.6619 212.349 11.2131 212.719 11.946C213.094 12.6733 213.281 13.5824 213.281 14.6733V23H210.733V14.9801C210.733 14.0199 210.486 13.2756 209.991 12.7472C209.497 12.2131 208.81 11.946 207.929 11.946C207.327 11.946 206.787 12.0739 206.31 12.3295C205.838 12.5852 205.466 12.9602 205.193 13.4545C204.926 13.9432 204.793 14.5341 204.793 15.2273ZM220.491 23.2898C219.662 23.2898 218.912 23.1364 218.241 22.8295C217.571 22.517 217.04 22.0653 216.648 21.4744C216.261 20.8835 216.068 20.1591 216.068 19.3011C216.068 18.5625 216.21 17.9545 216.494 17.4773C216.778 17 217.162 16.6222 217.645 16.3438C218.128 16.0653 218.668 15.8551 219.264 15.7131C219.861 15.571 220.469 15.4631 221.088 15.3892C221.872 15.2983 222.509 15.2244 222.997 15.1676C223.486 15.1051 223.841 15.0057 224.062 14.8693C224.284 14.733 224.395 14.5114 224.395 14.2045V14.1449C224.395 13.4006 224.185 12.8239 223.764 12.4148C223.349 12.0057 222.73 11.8011 221.906 11.8011C221.048 11.8011 220.372 11.9915 219.878 12.3722C219.389 12.7472 219.051 13.1648 218.864 13.625L216.469 13.0795C216.753 12.2841 217.168 11.642 217.713 11.1534C218.264 10.6591 218.898 10.3011 219.614 10.0795C220.33 9.85227 221.082 9.73864 221.872 9.73864C222.395 9.73864 222.949 9.80114 223.534 9.92614C224.125 10.0455 224.676 10.267 225.188 10.5909C225.705 10.9148 226.128 11.3778 226.457 11.9801C226.787 12.5767 226.952 13.3523 226.952 14.3068V23H224.463V21.2102H224.361C224.196 21.5398 223.949 21.8636 223.619 22.1818C223.29 22.5 222.866 22.7642 222.349 22.9744C221.832 23.1847 221.213 23.2898 220.491 23.2898ZM221.045 21.2443C221.75 21.2443 222.352 21.1051 222.852 20.8267C223.358 20.5483 223.741 20.1847 224.003 19.7358C224.27 19.2812 224.403 18.7955 224.403 18.2784V16.5909C224.313 16.6818 224.136 16.767 223.875 16.8466C223.619 16.9205 223.327 16.9858 222.997 17.0426C222.668 17.0937 222.347 17.142 222.034 17.1875C221.722 17.2273 221.46 17.2614 221.25 17.2898C220.756 17.3523 220.304 17.4574 219.895 17.6051C219.491 17.7528 219.168 17.9659 218.923 18.2443C218.685 18.517 218.565 18.8807 218.565 19.3352C218.565 19.9659 218.798 20.4432 219.264 20.767C219.73 21.0852 220.324 21.2443 221.045 21.2443Z" fill="#FEF7ED"/>
</svg>
