<svg width="586" height="317" viewBox="0 0 586 317" fill="none" xmlns="http://www.w3.org/2000/svg">
<path d="M556.329 0.5C573.181 0.5 580.257 3.7234 583.275 9.85938C584.806 12.971 585.332 16.896 585.463 21.7002C585.595 26.5178 585.331 32.0881 585.331 38.5537C585.331 44.9904 585.331 50.0444 584.874 54.0254C584.417 58.0052 583.511 60.8305 581.765 62.8594C580.024 64.8816 577.383 66.1861 573.29 66.9785C569.192 67.7719 563.702 68.041 556.329 68.041C541.547 68.041 528.794 70.1843 519.722 75.6084C510.607 81.058 505.254 89.7927 505.254 102.811V239.892C505.254 265.444 494.786 284.579 479.097 297.336C463.395 310.103 442.44 316.5 421.462 316.5C400.484 316.5 379.528 310.103 363.826 297.336C348.137 284.579 337.669 265.444 337.669 239.892V102.811C337.669 85.2818 320.452 68.041 286.594 68.041C252.735 68.041 235.519 85.282 235.519 102.806V291.301C235.518 296.169 233.461 302.464 228.292 307.542C223.132 312.611 214.836 316.5 202.302 316.5C189.767 316.5 181.471 312.611 176.311 307.542C171.141 302.464 169.085 296.169 169.085 291.301V102.811C169.085 85.2818 151.867 68.041 118.009 68.041C84.1505 68.0412 66.9336 85.282 66.9336 102.806V291.301C66.9335 296.169 64.8772 302.464 59.708 307.542C54.548 312.611 46.2518 316.5 33.7168 316.5C21.1819 316.5 12.8856 312.61 7.72559 307.54C2.55654 302.461 0.5 296.165 0.5 291.297V85.6758C0.5 60.1571 13.0464 38.8809 34.0068 23.9678C54.9768 9.048 84.371 0.500071 118.009 0.5C151.636 0.5 172.61 9.04322 185.162 17.5488C191.441 21.8033 195.621 26.0536 198.228 29.2324C199.531 30.8219 200.44 32.1445 201.022 33.0654C201.314 33.5258 201.524 33.8857 201.659 34.1289C201.727 34.2505 201.777 34.3433 201.809 34.4043C201.824 34.4344 201.835 34.4572 201.843 34.4717C201.846 34.479 201.85 34.4841 201.852 34.4873C201.852 34.4889 201.852 34.4906 201.853 34.4912L202.301 35.4023L202.75 34.4912L202.752 34.4883C202.754 34.4851 202.756 34.479 202.76 34.4717C202.767 34.4571 202.779 34.4346 202.795 34.4043C202.827 34.3432 202.876 34.2505 202.944 34.1289C203.08 33.8857 203.29 33.5256 203.581 33.0654C204.164 32.1445 205.076 30.822 206.381 29.2324C208.99 26.0536 213.174 21.8032 219.456 17.5488C232.017 9.04305 252.998 0.5 286.626 0.5C320.264 0.500031 349.658 9.04803 370.628 23.9678C391.588 38.8809 404.135 60.1571 404.135 85.6758V239.892L404.104 248.458V248.46C404.104 251.394 404.965 255.785 407.566 259.458C410.186 263.157 414.552 266.095 421.462 266.095C428.371 266.095 432.736 263.157 435.356 259.458C437.958 255.785 438.82 251.394 438.82 248.46V85.6758C438.82 49.5111 459.727 28.2384 484.899 15.9785C510.095 3.70764 539.514 0.500008 556.329 0.5Z" fill="#211F4A" stroke="#211F4A" stroke-linecap="round"/>
</svg>
