<svg width="155" height="44" viewBox="0 0 155 44" fill="none" xmlns="http://www.w3.org/2000/svg">
<g clip-path="url(#clip0_40000001_4339)">
<path fill-rule="evenodd" clip-rule="evenodd" d="M11.1836 0H32.8164C38.9676 0 44 5.04594 44 11.2138V32.7862C44 38.9541 38.9676 44 32.8164 44H11.1836C5.03238 44 3.614e-06 38.9541 3.614e-06 32.7862V11.2187C-0.00492525 5.05088 5.03238 0 11.1836 0ZM16.9356 9.57794C15.7378 9.57794 14.6091 10.0424 13.7515 10.8826C12.8791 11.7376 12.3912 12.8793 12.3813 14.09C12.3813 14.2581 12.3863 14.4262 12.406 14.5942C12.4454 14.5546 12.4848 14.5101 12.5242 14.4706C13.7565 13.2153 15.3337 12.5333 16.9503 12.5531H30.2091C31.0223 12.558 31.7075 11.9007 31.7123 11.0852C31.7222 10.2648 31.0667 9.58779 30.2485 9.57794H16.9898H16.9356ZM27.2517 23.4357C28.9472 23.4554 30.5047 24.1919 31.6384 25.3582C31.6434 25.2989 31.6434 25.2445 31.6434 25.1852C31.6581 23.9744 31.1949 22.8229 30.3421 21.9481C29.4894 21.0733 28.3508 20.5841 27.1433 20.5742H16.8665C15.1119 20.5544 13.5051 19.7637 12.3616 18.5281C12.3321 18.7505 12.3222 18.9729 12.3271 19.1953C12.3961 21.6269 14.2838 23.411 16.8271 23.4406H27.2517V23.4357ZM27.1335 34.427H27.1827C29.6768 34.427 31.7123 32.4107 31.7419 29.9148C31.7419 29.7469 31.737 29.5788 31.7222 29.4107C31.6482 29.4899 31.5743 29.569 31.4955 29.6431C30.2879 30.8242 28.7057 31.4667 27.025 31.4519H13.7664C13.377 31.4568 12.9974 31.6001 12.7115 31.8818C12.4257 32.1635 12.263 32.5391 12.263 32.9395C12.2531 33.75 12.9136 34.4172 13.7269 34.427H27.1335ZM27.1926 36.1815C30.6329 36.1815 33.4571 33.3942 33.4917 29.9346C33.5015 29.0351 33.3191 28.1654 32.9839 27.3796C33.2453 26.6926 33.3832 25.9611 33.393 25.205C33.4128 23.5247 32.7721 21.9332 31.5891 20.7225C30.4111 19.5116 28.8339 18.8395 27.1482 18.8198H16.8765C15.2893 18.8049 13.8699 17.9004 13.0665 16.5859C13.2636 16.2745 13.4953 15.978 13.7614 15.7062C14.6338 14.8166 15.7675 14.3124 16.8912 14.3124H16.9306H30.1894C31.9687 14.3273 33.4374 12.8941 33.4522 11.105C33.472 9.31596 32.0376 7.8432 30.2485 7.82343H16.9947C15.3287 7.80366 13.7318 8.44614 12.5242 9.63227C11.3167 10.8135 10.6464 12.3949 10.6267 14.0752C10.6168 14.9501 10.7893 15.7902 11.1097 16.5611C10.74 17.4112 10.5576 18.3255 10.5823 19.2349C10.6759 22.5906 13.3523 25.1506 16.8223 25.1852H27.2468C28.824 25.205 30.2386 26.0946 31.042 27.3993C30.835 27.7551 30.5787 28.0912 30.2731 28.3877C29.4007 29.2427 28.2622 29.7024 27.0348 29.6924H13.7762C12.9136 29.6826 12.1004 30.0186 11.4793 30.6315C10.8632 31.2443 10.5182 32.0549 10.5083 32.9148C10.4886 34.6939 11.9229 36.1568 13.7121 36.1766H27.1235L27.1926 36.1815Z" fill="#EA591C"/>
<path fill-rule="evenodd" clip-rule="evenodd" d="M61.4568 35.509C58.5304 35.509 56.3827 34.8642 55.0187 33.5747C54.0515 32.6571 53.5654 31.4914 53.5654 30.0778C53.5654 29.5322 53.9027 29.2594 54.5723 29.2594H56.8787C57.4739 29.2594 57.8112 29.4975 57.8856 29.9688C58.0096 30.7127 58.3369 31.2534 58.8727 31.5857C59.4034 31.918 60.2317 32.0866 61.3477 32.0866C62.5133 32.0866 63.3465 31.918 63.8426 31.5857C64.3385 31.2484 64.5866 30.6879 64.5866 29.8943C64.5866 29.4975 64.537 29.1652 64.4377 28.8874C64.3385 28.6146 64.1649 28.3716 63.917 28.1632C63.669 27.955 63.3168 27.7665 62.8556 27.6078C62.3942 27.449 61.8189 27.2655 61.1245 27.0671L58.6692 26.4372C55.4453 25.594 53.8333 23.8828 53.8333 21.3035V20.7828C53.8333 18.9475 54.483 17.5191 55.7875 16.5023C57.0871 15.4855 58.9073 14.9746 61.2385 14.9746C64.041 14.9746 66.0994 15.5946 67.4138 16.8346C68.3314 17.7274 68.7927 18.8435 68.7927 20.1826C68.7927 20.5298 68.7133 20.7679 68.5496 20.8919C68.386 21.0159 68.0735 21.0804 67.6023 21.0804H65.6678C65.2463 21.0804 64.9635 21.0307 64.8098 20.9315C64.661 20.8323 64.5618 20.634 64.5121 20.3364C64.3138 18.9972 63.1333 18.3276 60.9757 18.3276C60.0332 18.3276 59.3092 18.5111 58.7983 18.8831C58.2874 19.255 58.0344 19.7908 58.0344 20.4803C58.0344 21.1002 58.2576 21.5863 58.704 21.9335C59.1504 22.2807 59.9688 22.618 61.1593 22.9403L64.3237 23.7588C67.3989 24.5772 68.9365 26.338 68.9365 29.0412V29.7852C68.9365 31.5956 68.2868 33.0043 66.9823 34.0061C65.6778 35.0081 63.8376 35.509 61.4568 35.509Z" fill="#485865"/>
<path fill-rule="evenodd" clip-rule="evenodd" d="M80.0217 18.54C78.6825 18.54 77.7104 18.8872 77.1002 19.5817C76.4901 20.2761 76.1628 21.4416 76.1132 23.0784H83.5929C83.5929 21.516 83.3151 20.3703 82.7547 19.6362C82.1991 18.9071 81.2865 18.54 80.0217 18.54ZM76.1132 26.4314V26.615C76.1132 28.4749 76.4157 29.7944 77.0259 30.578C77.6359 31.3567 78.6428 31.7485 80.0564 31.7485C81.8668 31.7485 82.9729 31.1037 83.3697 29.8142C83.5185 29.3925 83.8557 29.1793 84.3766 29.1793H86.683C87.1046 29.1793 87.4022 29.2438 87.5757 29.3628C87.7494 29.4868 87.8387 29.71 87.8387 30.0324C87.8387 30.5036 87.6849 31.0542 87.3724 31.689C87.06 32.324 86.6978 32.8497 86.2763 33.2713C85.5819 33.9905 84.6891 34.5411 83.5979 34.9279C82.5067 35.3099 81.2915 35.5033 79.9523 35.5033C77.3235 35.5033 75.2898 34.7642 73.8515 33.2911C72.4131 31.8131 71.6938 29.6902 71.6938 26.9076V24.006C71.6938 21.1044 72.4081 18.8724 73.8316 17.3099C75.26 15.7475 77.3085 14.9639 79.992 14.9639C82.6703 14.9639 84.694 15.688 86.058 17.1413C87.422 18.5946 88.1065 20.7423 88.1065 23.5943V25.3452C88.1065 25.7668 88.0321 26.0544 87.8833 26.2033C87.7345 26.352 87.4121 26.4264 86.9161 26.4264H76.1132V26.4314Z" fill="#485865"/>
<path fill-rule="evenodd" clip-rule="evenodd" d="M96.1667 34.4277C96.1667 34.8741 96.0873 35.1667 95.9237 35.3006C95.7601 35.4395 95.4475 35.504 94.9763 35.504H92.9278C92.4565 35.504 92.1391 35.4346 91.9804 35.3006C91.8167 35.1667 91.7373 34.8741 91.7373 34.4277V10.0939C91.7373 9.6475 91.8167 9.35486 91.9804 9.22094C92.1391 9.08701 92.4565 9.01758 92.9278 9.01758H94.9763C95.4475 9.01758 95.7649 9.08701 95.9237 9.22094C96.0825 9.35981 96.1667 9.6475 96.1667 10.0939V34.4277Z" fill="#485865"/>
<path fill-rule="evenodd" clip-rule="evenodd" d="M105.061 34.4277C105.061 34.8741 104.981 35.1667 104.817 35.3006C104.653 35.4395 104.341 35.504 103.87 35.504H101.821C101.35 35.504 101.033 35.4346 100.874 35.3006C100.71 35.1667 100.631 34.8741 100.631 34.4277V10.0939C100.631 9.6475 100.71 9.35486 100.874 9.22094C101.033 9.08701 101.35 9.01758 101.821 9.01758H103.87C104.341 9.01758 104.658 9.08701 104.817 9.22094C104.975 9.35981 105.061 9.6475 105.061 10.0939V34.4277Z" fill="#485865"/>
<path fill-rule="evenodd" clip-rule="evenodd" d="M113.506 26.6895C113.506 30.0871 114.846 31.7884 117.525 31.7884C120.228 31.7884 121.581 30.0921 121.581 26.6895V23.8226C121.581 20.425 120.228 18.7237 117.525 18.7237C114.846 18.7237 113.506 20.425 113.506 23.8226V26.6895ZM109.152 9.57248C109.152 9.1509 109.226 8.86321 109.375 8.71442C109.523 8.56561 109.846 8.49121 110.342 8.49121H112.391C112.887 8.49121 113.209 8.56561 113.358 8.71442C113.506 8.86321 113.581 9.1509 113.581 9.57248V16.6405C114.697 15.5245 116.284 14.964 118.343 14.964C120.823 14.964 122.723 15.6684 124.037 17.0869C125.351 18.5006 126.011 20.549 126.011 23.2274V27.245C126.011 29.8242 125.262 31.8479 123.759 33.3112C122.257 34.7743 120.183 35.5084 117.53 35.5084C114.652 35.5084 112.539 34.7594 111.186 33.2565C109.831 31.7536 109.157 29.6804 109.157 27.0268V9.57248H109.152Z" fill="#728089"/>
<path fill-rule="evenodd" clip-rule="evenodd" d="M134.155 34.4274C134.155 34.8738 134.076 35.1664 133.912 35.3003C133.748 35.4392 133.437 35.5037 132.965 35.5037H130.916C130.446 35.5037 130.128 35.4342 129.969 35.3003C129.806 35.1664 129.726 34.8738 129.726 34.4274V17.0872C129.726 16.6408 129.806 16.3482 129.969 16.2143C130.133 16.0754 130.446 16.0109 130.916 16.0109H132.965C133.437 16.0109 133.753 16.0804 133.912 16.2143C134.076 16.3482 134.155 16.6408 134.155 17.0872V34.4274ZM131.963 13.7789C131.17 13.7789 130.55 13.5855 130.103 13.2035C129.656 12.8166 129.434 12.266 129.434 11.5468V10.7681C129.434 10.0489 129.656 9.49837 130.103 9.11149C130.55 8.72957 131.17 8.53613 131.963 8.53613C132.757 8.53613 133.382 8.72957 133.843 9.11149C134.299 9.49837 134.533 10.0489 134.533 10.7681V11.5468C134.533 12.266 134.304 12.8166 133.843 13.2035C133.382 13.5855 132.757 13.7789 131.963 13.7789Z" fill="#728089"/>
<path fill-rule="evenodd" clip-rule="evenodd" d="M146.213 18.54C144.874 18.54 143.902 18.8872 143.292 19.5817C142.682 20.2761 142.355 21.4416 142.305 23.0784H149.785C149.785 21.516 149.507 20.3703 148.947 19.6362C148.391 18.9071 147.479 18.54 146.213 18.54ZM142.305 26.4314V26.615C142.305 28.4749 142.608 29.7944 143.217 30.578C143.828 31.3567 144.835 31.7485 146.249 31.7485C148.058 31.7485 149.165 31.1037 149.562 29.8142C149.71 29.3925 150.048 29.1793 150.563 29.1793H152.87C153.291 29.1793 153.589 29.2438 153.763 29.3628C153.936 29.4868 154.025 29.71 154.025 30.0324C154.025 30.5036 153.872 31.0542 153.559 31.689C153.246 32.324 152.885 32.8497 152.463 33.2713C151.769 33.9905 150.876 34.5411 149.785 34.9279C148.693 35.3099 147.479 35.5033 146.139 35.5033C143.51 35.5033 141.476 34.7642 140.038 33.2911C138.6 31.8131 137.881 29.6902 137.881 26.9076V24.006C137.881 21.1044 138.594 18.8724 140.019 17.3099C141.447 15.7475 143.496 14.9639 146.174 14.9639C148.852 14.9639 150.876 15.688 152.24 17.1413C153.604 18.5946 154.288 20.7423 154.288 23.5943V25.3452C154.288 25.7668 154.214 26.0544 154.065 26.2033C153.916 26.352 153.594 26.4264 153.098 26.4264H142.305V26.4314Z" fill="#728089"/>
</g>
<defs>
<clipPath id="clip0_40000001_4339">
<rect width="154.957" height="44" fill="white"/>
</clipPath>
</defs>
</svg>
