<svg width="125" height="175" viewBox="0 0 125 175" fill="none" xmlns="http://www.w3.org/2000/svg">
<path d="M111.978 36.9279V89.2632C111.978 95.1166 109.829 100.764 105.942 105.125C102.055 109.486 96.7038 112.254 90.9124 112.898H12.6855V36.9279C12.6845 33.8046 13.296 30.7117 14.485 27.8259C15.6741 24.94 17.4175 22.3178 19.6155 20.1089C21.8136 17.9001 24.4233 16.1478 27.2956 14.9524C30.1679 13.7569 33.2465 13.1416 36.3556 13.1416H88.308C91.417 13.1416 94.4956 13.7569 97.3679 14.9524C100.24 16.1478 102.85 17.9001 105.048 20.1089C107.246 22.3178 108.989 24.94 110.178 27.8259C111.368 30.7117 111.979 33.8046 111.978 36.9279V36.9279Z" fill="#2CD5C4"/>
<path d="M67.8923 100.26C67.8918 100.661 67.7329 101.046 67.4505 101.33C67.1681 101.613 66.7853 101.773 66.3859 101.773H58.41C58.0105 101.773 57.6273 101.614 57.3448 101.33C57.0623 101.046 56.9036 100.661 56.9036 100.26C56.9036 99.8588 57.0623 99.4739 57.3448 99.1901C57.6273 98.9063 58.0105 98.7468 58.41 98.7468H66.3879C66.7871 98.7474 67.1697 98.907 67.4518 99.1908C67.7339 99.4745 67.8923 99.8591 67.8923 100.26V100.26ZM71.8902 91.9391H52.9097C52.7074 91.9317 52.5057 91.9654 52.3167 92.0381C52.1276 92.1107 51.9551 92.221 51.8094 92.3621C51.6637 92.5033 51.5478 92.6725 51.4687 92.8596C51.3895 93.0468 51.3487 93.248 51.3487 93.4514C51.3487 93.6547 51.3895 93.856 51.4687 94.0431C51.5478 94.2303 51.6637 94.3995 51.8094 94.5407C51.9551 94.6818 52.1276 94.792 52.3167 94.8647C52.5057 94.9374 52.7074 94.971 52.9097 94.9637H71.8941C72.0964 94.971 72.2981 94.9374 72.4871 94.8647C72.6762 94.792 72.8487 94.6818 72.9944 94.5407C73.1401 94.3995 73.256 94.2303 73.3352 94.0431C73.4143 93.856 73.4551 93.6547 73.4551 93.4514C73.4551 93.248 73.4143 93.0468 73.3352 92.8596C73.256 92.6725 73.1401 92.5033 72.9944 92.3621C72.8487 92.221 72.6762 92.1107 72.4871 92.0381C72.2981 91.9654 72.0964 91.9317 71.8941 91.9391H71.8902ZM71.8902 85.209H52.9097C52.5102 85.209 52.1271 85.3685 51.8446 85.6523C51.5621 85.9361 51.4033 86.321 51.4033 86.7223C51.4033 87.1237 51.5621 87.5086 51.8446 87.7923C52.1271 88.0761 52.5102 88.2356 52.9097 88.2356H71.8941C72.2936 88.2356 72.6768 88.0761 72.9593 87.7923C73.2418 87.5086 73.4005 87.1237 73.4005 86.7223C73.4005 86.321 73.2418 85.9361 72.9593 85.6523C72.6768 85.3685 72.2936 85.209 71.8941 85.209H71.8902ZM93.2709 53.0878C92.6373 52.9203 91.9938 52.7933 91.3443 52.7075C91.8912 51.0775 92.0621 49.3439 91.8441 47.6377C91.6261 45.9315 91.0249 44.2975 90.086 42.859C89.147 41.4205 87.8949 40.2153 86.4241 39.3343C84.9534 38.4534 83.3026 37.9198 81.5964 37.7739V37.7739C81.7496 36.5748 81.5888 35.3563 81.1301 34.2386C80.6714 33.121 79.9305 32.1428 78.9805 31.4006C78.0306 30.6584 76.9044 30.1778 75.7131 30.0063C74.5219 29.8348 73.3067 29.9783 72.1875 30.4226C71.2647 28.6124 69.8627 27.093 68.1359 26.0315C66.4091 24.9699 64.4243 24.4074 62.3998 24.4058C60.3753 24.4041 58.3896 24.9634 56.6611 26.0222C54.9326 27.0809 53.5282 28.598 52.6025 30.4067C51.4837 29.9697 50.271 29.8325 49.0835 30.0085C47.896 30.1846 46.7745 30.6679 45.8291 31.411C44.8837 32.154 44.1469 33.1313 43.6911 34.2469C43.2353 35.3624 43.0761 36.5779 43.2292 37.7739V37.7739C41.5258 37.9212 39.8778 38.4549 38.4095 39.3349C36.9411 40.2149 35.6908 41.4182 34.7526 42.8541C33.8145 44.29 33.213 45.9211 32.9934 47.6245C32.7739 49.3278 32.9421 51.059 33.4853 52.6876C32.789 52.7755 32.0992 52.9085 31.42 53.0858C30.8557 53.2848 30.3617 53.6453 29.9989 54.1229C29.6361 54.6004 29.4204 55.1742 29.3782 55.7735C29.3361 56.3727 29.4694 56.9713 29.7618 57.4954C30.0541 58.0194 30.4928 58.4461 31.0236 58.7228C31.1448 58.7778 31.2535 58.8572 31.3428 58.9562C31.4321 59.0552 31.5002 59.1716 31.5429 59.2982L33.404 65.9765C33.8979 68.1361 35.0766 70.0761 36.7627 71.5046C38.4489 72.9331 40.5513 73.7728 42.7535 73.8973L46.3807 80.2431L46.5116 80.4701C46.6534 80.6768 46.8432 80.8457 47.0645 80.9623C47.2859 81.0788 47.5322 81.1395 47.7821 81.1391H76.8929C77.1329 81.139 77.3696 81.0828 77.5842 80.975C77.7989 80.8671 77.9856 80.7107 78.1297 80.5179V80.5179L78.3161 80.1933L81.9254 73.9133C84.1316 73.7926 86.2388 72.9545 87.9292 71.5253C89.6197 70.0962 90.8016 68.1535 91.2967 65.9905L93.146 59.3002C93.1886 59.1733 93.257 59.0567 93.3467 58.9577C93.4364 58.8586 93.5456 58.7793 93.6673 58.7248C94.1981 58.4481 94.6367 58.0214 94.9291 57.4973C95.2215 56.9733 95.3548 56.3747 95.3126 55.7755C95.2705 55.1762 95.0547 54.6024 94.6919 54.1249C94.3291 53.6473 93.8351 53.2868 93.2709 53.0878V53.0878ZM37.5545 44.2252C38.3696 43.1001 39.4552 42.2006 40.7098 41.6108C41.9645 41.021 43.3475 40.76 44.7297 40.8522L45.4848 40.9398C46.276 41.0644 47.0442 41.3066 47.7642 41.6587C47.8455 41.6985 47.9268 41.7383 48.008 41.7841C48.36 41.9257 48.7515 41.9331 49.1085 41.8049C49.4656 41.6768 49.7637 41.4219 49.9467 41.0882C50.1297 40.7546 50.1849 40.3653 50.102 39.9936C50.0191 39.6219 49.8038 39.2935 49.4966 39.0702L49.4312 39.0244C49.3321 38.9706 49.233 38.9188 49.1299 38.871C48.181 38.406 47.1714 38.0781 46.131 37.8974C45.9451 37.1606 45.9664 36.3864 46.1924 35.6611C46.4184 34.9357 46.8404 34.2876 47.4113 33.7888C47.9822 33.29 48.6796 32.9601 49.4261 32.8358C50.1725 32.7115 50.9386 32.7977 51.6392 33.0848C51.6095 33.2281 51.5797 33.3715 51.554 33.5169C51.5342 33.6224 51.5163 33.7319 51.5005 33.8414C51.5005 33.8673 51.5005 33.8912 51.5005 33.9171C51.5073 34.2824 51.6449 34.633 51.888 34.9049C52.131 35.1767 52.4634 35.3516 52.8242 35.3975C53.1851 35.4434 53.5503 35.3573 53.8532 35.1549C54.156 34.9526 54.3763 34.6475 54.4736 34.2954C54.4855 34.2058 54.5013 34.1182 54.5152 34.0306C54.8497 32.1747 55.8237 30.4962 57.2664 29.2893C58.7092 28.0824 60.5287 27.424 62.4061 27.4295C64.2836 27.4349 66.0993 28.1039 67.5351 29.3192C68.9708 30.5345 69.9351 32.2186 70.2589 34.0764V34.0764C70.2688 34.1301 70.2767 34.1839 70.2847 34.2376C70.365 34.6031 70.5767 34.9259 70.8791 35.1444C71.1815 35.3629 71.5535 35.4618 71.9239 35.4221C72.2943 35.3825 72.6371 35.207 72.8869 34.9293C73.1366 34.6517 73.2758 34.2913 73.2776 33.9171V33.8792C73.2578 33.7438 73.236 33.6065 73.2122 33.481C73.1884 33.3556 73.1626 33.2281 73.1369 33.1047C73.8379 32.8074 74.6076 32.7126 75.3594 32.8311C76.1111 32.9495 76.815 33.2763 77.3919 33.7749C77.9687 34.2734 78.3955 34.9238 78.6243 35.6529C78.853 36.3819 78.8747 37.1606 78.6867 37.9014C78.6867 37.9014 78.6867 37.9014 78.6867 37.9014C77.6464 38.0821 76.6367 38.4099 75.6878 38.875C75.5887 38.9228 75.4896 38.9746 75.3865 39.0283L75.3231 39.0741C75.0159 39.2974 74.8006 39.6259 74.7177 39.9976C74.6348 40.3693 74.69 40.7586 74.873 41.0922C75.056 41.4258 75.3541 41.6808 75.7112 41.8089C76.0682 41.9371 76.4596 41.9297 76.8117 41.7881C76.8909 41.7423 76.9722 41.7025 77.0535 41.6626C77.7742 41.3106 78.5431 41.0683 79.3349 40.9438L80.088 40.8562C81.4902 40.763 82.8927 41.0331 84.1612 41.6404C85.4297 42.2478 86.5217 43.1721 87.3327 44.3249C88.1437 45.4777 88.6465 46.8204 88.7929 48.2244C88.9393 49.6283 88.7245 51.0465 88.169 52.3432C84.2722 51.9748 79.6956 51.7737 78.8116 51.8135C75.2617 51.9748 68.703 52.7334 64.8399 54.4159C64.0165 54.2122 63.1705 54.1152 62.3226 54.1272C61.4889 54.123 60.6576 54.2199 59.847 54.4159C55.9859 52.7314 49.4153 51.9708 45.8634 51.8095C44.9893 51.7697 40.5118 51.9648 36.6467 52.3252C36.0854 51.012 35.8739 49.5747 36.0331 48.1545C36.1923 46.7343 36.7166 45.3802 37.5545 44.2252V44.2252ZM40.4385 70.4865L40.042 70.4068C39.4394 70.2564 38.8744 69.9817 38.3831 69.6002C37.8917 69.2186 37.4847 68.7387 37.1878 68.1907V68.1907C37.0346 67.8534 36.9022 67.507 36.7914 67.1533C35.8218 64.4934 35.2805 61.6953 35.1879 58.8642L35.174 58.2509C35.2202 57.5764 35.4739 56.933 35.9 56.4097C36.3262 55.8864 36.9036 55.5091 37.5525 55.3299L37.8201 55.2681C38.0639 55.2124 38.3077 55.1606 38.5535 55.1108C40.2612 54.7584 41.9922 54.5315 43.7327 54.4319C44.4423 54.3881 45.1578 54.3681 45.8793 54.3681C49.0248 54.3681 52.3012 54.9655 55.2129 55.7142C56.7193 56.1124 57.9561 56.8272 58.1444 58.2031C58.1444 58.2031 58.1702 58.46 58.1702 58.5894C58.1702 58.7726 58.1702 59.119 58.1702 59.119C58.0999 60.3617 57.9429 61.5979 57.7004 62.8186C57.7004 62.8186 57.411 64.6106 57.082 65.4389C56.4575 66.9996 55.4148 68.3559 54.0695 69.3573C52.7242 70.3586 51.129 70.9659 49.4609 71.1117L47.4471 71.1675C45.0945 71.1685 42.7473 70.9405 40.4385 70.4865V70.4865ZM76.4549 77.1887L76.3895 77.3022C76.2493 77.5219 76.0564 77.7027 75.8285 77.8279C75.6006 77.9532 75.345 78.0189 75.0853 78.019H49.5699C49.3217 78.0193 49.0771 77.9594 48.8569 77.8443C48.6367 77.7292 48.4475 77.5623 48.3053 77.3579C48.3053 77.3579 48.3053 77.3579 48.3053 77.3579L48.1686 77.125L46.3272 73.9192H49.8038C54.3428 73.9192 58.2197 70.7991 59.5319 66.6774L61.6031 59.3102C61.8608 59.2883 62.0689 59.2704 62.3345 59.2704C62.6001 59.2704 62.8499 59.2823 63.1056 59.3022L65.155 66.6695C66.4672 70.7911 70.3441 73.9113 74.8851 73.9113H78.3398L76.4549 77.1887ZM89.501 58.8701C89.4087 61.7014 88.8667 64.4998 87.8955 67.1593C87.7866 67.5136 87.6541 67.8602 87.4991 68.1967V68.1967C87.2021 68.7449 86.7948 69.2251 86.3031 69.6066C85.8113 69.9882 85.246 70.2627 84.6429 70.4128L84.2465 70.4925C81.9389 70.9454 79.593 71.1728 77.2418 71.1714L75.228 71.1157C73.5596 70.9703 71.9639 70.3631 70.6183 69.3617C69.2726 68.3603 68.2295 67.0039 67.6049 65.4429C67.2759 64.6226 66.9865 62.8246 66.9865 62.8226C66.7449 61.6018 66.588 60.3656 66.5167 59.123C66.5167 59.123 66.5167 58.7765 66.5167 58.5934C66.5167 58.4639 66.5445 58.2071 66.5445 58.2071C66.7308 56.8312 67.9696 56.1164 69.476 55.7181C72.3877 54.9655 75.664 54.3721 78.8096 54.3721C79.5291 54.3721 80.2446 54.392 80.9542 54.4358C82.7392 54.5378 84.5141 54.7734 86.2642 55.1407C86.4624 55.1825 86.6606 55.2263 86.8688 55.2721L87.1344 55.3339C87.7833 55.513 88.3607 55.8904 88.7869 56.4137C89.213 56.937 89.4667 57.5804 89.5129 58.2549L89.501 58.8701ZM74.5144 60.5586C73.2084 60.5578 71.9499 61.0507 70.9892 61.9395C70.0284 62.8282 69.4359 64.0477 69.3293 65.3553C69.3094 65.4543 69.2994 65.555 69.2996 65.656C69.2993 65.7226 69.304 65.7891 69.3134 65.8551C69.3625 66.2217 69.5401 66.5588 69.8143 66.8057C70.0885 67.0527 70.4414 67.1933 70.8095 67.2024C71.1777 67.2116 71.537 67.0885 71.823 66.8554C72.1089 66.6224 72.3028 66.2945 72.3698 65.9307V65.9307C72.3698 65.8949 72.3698 65.8571 72.3698 65.8212C72.37 65.7173 72.3773 65.6135 72.3916 65.5106C72.4645 65.0044 72.7143 64.5407 73.0963 64.2025C73.4783 63.8643 73.9677 63.6737 74.4768 63.6648H74.5541C75.0617 63.6755 75.5492 63.8665 75.9299 64.2041C76.3106 64.5417 76.5598 65.0039 76.6333 65.5086C76.6476 65.6115 76.6549 65.7153 76.6551 65.8192C76.6551 65.8551 76.6551 65.8929 76.6551 65.9287C76.7208 66.2939 76.9143 66.6234 77.2006 66.8577C77.4869 67.0921 77.8473 67.2159 78.2165 67.2068C78.5858 67.1976 78.9396 67.0562 79.2141 66.8079C79.4886 66.5597 79.6657 66.221 79.7134 65.8531V65.7774C79.7134 65.6341 79.7134 65.4907 79.6956 65.3493C79.5877 64.0435 78.9951 62.826 78.0353 61.9386C77.0756 61.0512 75.8188 60.5586 74.5144 60.5586V60.5586ZM50.4876 67.8323C51.0569 67.8323 51.6029 67.6051 52.0055 67.2007C52.4081 66.7963 52.6342 66.2478 52.6342 65.6759V61.9345C52.6342 61.3626 52.4081 60.8141 52.0055 60.4097C51.6029 60.0053 51.0569 59.7781 50.4876 59.7781C49.9183 59.7781 49.3723 60.0053 48.9697 60.4097C48.5672 60.8141 48.341 61.3626 48.341 61.9345V65.6759C48.341 66.2478 48.5672 66.7963 48.9697 67.2007C49.3723 67.6051 49.9183 67.8323 50.4876 67.8323V67.8323Z" fill="#212322"/>
<path d="M58.1644 58.5896C58.1644 58.4601 58.1387 58.2033 58.1387 58.2033C57.9504 56.8274 56.7135 56.1126 55.2072 55.7143C52.2955 54.9617 49.0191 54.3683 45.8736 54.3683C45.1521 54.3683 44.4365 54.3882 43.727 54.432C41.7365 54.546 39.7588 54.8257 37.8144 55.2683L37.5468 55.33C36.8982 55.5098 36.321 55.8872 35.895 56.4104C35.469 56.9336 35.2151 57.5767 35.1683 58.2511L35.1822 58.8643C35.2748 61.6954 35.8161 64.4936 36.7857 67.1535C36.8965 67.5071 37.0289 67.8536 37.1821 68.1909V68.1909C37.479 68.7388 37.886 69.2188 38.3773 69.6003C38.8687 69.9818 39.4336 70.2566 40.0363 70.407V70.407C40.1632 70.4389 40.292 70.4648 40.4208 70.4847C42.7284 70.9377 45.0743 71.1651 47.4255 71.1637L49.4393 71.1079C51.1094 70.9649 52.7072 70.3594 54.0551 69.3586C55.403 68.3578 56.4482 67.001 57.0743 65.4391V65.4391C57.4033 64.6188 57.6927 62.8207 57.6927 62.8188C57.9352 61.5981 58.0922 60.3619 58.1624 59.1192C58.1624 59.1192 58.1644 58.7727 58.1644 58.5896ZM52.6364 65.6761C52.6364 66.248 52.4103 66.7965 52.0077 67.2009C51.6051 67.6053 51.0591 67.8325 50.4898 67.8325C49.9205 67.8325 49.3745 67.6053 48.9719 67.2009C48.5694 66.7965 48.3432 66.248 48.3432 65.6761V61.9347C48.3432 61.3628 48.5694 60.8143 48.9719 60.4099C49.3745 60.0055 49.9205 59.7783 50.4898 59.7783C51.0591 59.7783 51.6051 60.0055 52.0077 60.4099C52.4103 60.8143 52.6364 61.3628 52.6364 61.9347V65.6761ZM87.1365 55.3221L86.8709 55.2603C84.9258 54.8177 82.9475 54.538 80.9564 54.4241C80.2468 54.3803 79.5313 54.3604 78.8118 54.3604C75.6662 54.3604 72.3898 54.9577 69.4781 55.7064C67.9718 56.1046 66.733 56.8194 66.5466 58.1953C66.5466 58.1953 66.5189 58.4522 66.5189 58.5816C66.5189 58.7648 66.5189 59.1112 66.5189 59.1112C66.5885 60.3564 66.7441 61.5952 66.9847 62.8188C66.9847 62.8188 67.2741 64.6108 67.6031 65.4391C68.2277 67 69.2708 68.3565 70.6165 69.3579C71.9621 70.3593 73.5578 70.9665 75.2262 71.1119L77.24 71.1677C79.5913 71.1684 81.9371 70.9403 84.2446 70.4867V70.4867C84.3755 70.4668 84.5043 70.4409 84.6292 70.409C85.2322 70.2589 85.7976 69.9844 86.2894 69.6028C86.7811 69.2213 87.1884 68.7411 87.4853 68.1929C87.6404 67.8564 87.7728 67.5098 87.8818 67.1555C88.853 64.496 89.395 61.6976 89.4872 58.8663L89.5011 58.253C89.4557 57.5802 89.204 56.9379 88.7806 56.4146C88.3572 55.8912 87.7829 55.5123 87.1365 55.33V55.3221ZM79.7116 65.8513C79.6639 66.2192 79.4868 66.5579 79.2123 66.8061C78.9378 67.0544 78.5839 67.1958 78.2147 67.205C77.8455 67.2141 77.4851 67.0903 77.1988 66.8559C76.9125 66.6216 76.719 66.2921 76.6533 65.9269V65.9269C76.6533 65.8911 76.6533 65.8533 76.6533 65.8174C76.6531 65.7135 76.6458 65.6097 76.6315 65.5068C76.5582 65.0004 76.308 64.5367 75.9256 64.1985C75.5433 63.8604 75.0537 63.6699 74.5443 63.661H74.467C73.9583 63.6709 73.4697 63.8622 73.0885 64.2007C72.7072 64.5392 72.4582 65.0029 72.3859 65.5088C72.3716 65.6117 72.3643 65.7155 72.3641 65.8194C72.3641 65.8553 72.3641 65.8931 72.3641 65.9289C72.2971 66.2927 72.1032 66.6206 71.8172 66.8536C71.5312 67.0867 71.1719 67.2098 70.8037 67.2006C70.4356 67.1915 70.0827 67.0509 69.8085 66.8039C69.5343 66.557 69.3568 66.2199 69.3077 65.8533C69.2982 65.7873 69.2936 65.7208 69.2938 65.6542C69.2937 65.5532 69.3036 65.4525 69.3235 65.3535C69.4287 64.0448 70.0204 62.8238 70.981 61.9335C71.9416 61.0432 73.2007 60.5489 74.5077 60.5489C75.8146 60.5489 77.0737 61.0432 78.0343 61.9335C78.9949 62.8238 79.5867 64.0448 79.6918 65.3535C79.7037 65.4949 79.7096 65.6382 79.7096 65.7816L79.7116 65.8513Z" fill="white"/>
<path d="M65.1515 66.6755L63.102 59.3082C62.8464 59.2883 62.5907 59.2764 62.331 59.2764C62.0714 59.2764 61.8573 59.2943 61.5996 59.3162L59.5284 66.6834C58.2162 70.8051 54.3393 73.9253 49.8003 73.9253H46.3237L48.1651 77.131L48.3018 77.364C48.444 77.5684 48.6332 77.7352 48.8534 77.8503C49.0736 77.9654 49.3182 78.0254 49.5664 78.025H75.0837C75.3435 78.0249 75.5991 77.9592 75.827 77.834C76.0548 77.7087 76.2477 77.5279 76.3879 77.3082L76.4533 77.1947L78.3343 73.9213H74.8815C70.3406 73.9173 66.4637 70.7972 65.1515 66.6755Z" fill="#FFD700"/>
<path d="M87.274 44.2253C86.4584 43.1001 85.3725 42.2007 84.1176 41.6109C82.8626 41.0211 81.4794 40.7601 80.0969 40.8523L79.3437 40.9399C78.5519 41.0644 77.783 41.3067 77.0623 41.6587C76.981 41.6986 76.8998 41.7384 76.8205 41.7842C76.4685 41.9258 76.0771 41.9332 75.72 41.805C75.3629 41.6768 75.0648 41.4219 74.8818 41.0883C74.6988 40.7547 74.6436 40.3654 74.7265 39.9937C74.8094 39.6219 75.0247 39.2935 75.3319 39.0702L75.3954 39.0244C75.4965 38.9707 75.5936 38.9189 75.6966 38.8711C76.6455 38.406 77.6552 38.0782 78.6955 37.8975C78.6955 37.8975 78.6955 37.8975 78.6955 37.8975C78.8835 37.1567 78.8619 36.378 78.6331 35.649C78.4043 34.9199 77.9775 34.2695 77.4007 33.771C76.8239 33.2724 76.1199 32.9456 75.3682 32.8271C74.6165 32.7087 73.8467 32.8035 73.1457 33.1008C73.1715 33.2242 73.1972 33.3497 73.221 33.4771C73.2448 33.6045 73.2666 33.7479 73.2864 33.8753V33.9132C73.288 34.2886 73.1513 34.6513 72.9027 34.9316C72.654 35.2119 72.311 35.3899 71.9396 35.4314C71.5682 35.4729 71.1946 35.375 70.8907 35.1565C70.5868 34.9379 70.3741 34.6143 70.2935 34.2477C70.2935 34.1939 70.2776 34.1402 70.2677 34.0864C69.9439 32.2286 68.9796 30.5445 67.5439 29.3292C66.1081 28.1139 64.2924 27.4449 62.415 27.4395C60.5375 27.434 58.718 28.0924 57.2753 29.2994C55.8325 30.5063 54.8586 32.1847 54.524 34.0406C54.5102 34.1282 54.4943 34.2158 54.4824 34.3054C54.3851 34.6575 54.1648 34.9626 53.862 35.165C53.5591 35.3673 53.1939 35.4534 52.833 35.4075C52.4722 35.3616 52.1398 35.1867 51.8968 34.9149C51.6537 34.6431 51.5162 34.2924 51.5093 33.9271C51.5093 33.9012 51.5093 33.8773 51.5093 33.8514C51.5251 33.7419 51.543 33.6324 51.5628 33.5269C51.5886 33.3815 51.6183 33.2382 51.648 33.0948C50.9475 32.8077 50.1813 32.7215 49.4349 32.8458C48.6885 32.9701 47.991 33.3 47.4201 33.7988C46.8492 34.2976 46.4273 34.9457 46.2012 35.6711C45.9752 36.3965 45.9539 37.1706 46.1398 37.9074C46.1398 37.9074 46.1398 37.9074 46.1398 37.9074C47.1818 38.0851 48.1935 38.4102 49.1447 38.8731C49.2458 38.9209 49.3429 38.9727 49.4459 39.0264L49.5114 39.0722C49.8186 39.2955 50.0339 39.6239 50.1168 39.9956C50.1997 40.3673 50.1445 40.7567 49.9615 41.0903C49.7785 41.4239 49.4804 41.6788 49.1233 41.807C48.7662 41.9352 48.3748 41.9278 48.0228 41.7862C47.9415 41.7404 47.8603 41.7005 47.779 41.6607C47.059 41.3087 46.2907 41.0664 45.4996 40.9419L44.7444 40.8543C43.3437 40.7616 41.9428 41.0313 40.6754 41.6377C39.4081 42.244 38.3167 43.1668 37.5057 44.3177C36.6946 45.4687 36.1909 46.8094 36.0428 48.2117C35.8946 49.614 36.107 51.031 36.6595 52.3273C40.5087 51.9689 44.9823 51.7698 45.8623 51.8096C49.4142 51.9709 55.9848 52.7315 59.8459 54.416C60.6596 54.2179 61.4942 54.1196 62.3315 54.1233C63.1794 54.1113 64.0253 54.2083 64.8487 54.412C68.7058 52.7295 75.2705 51.9709 78.8204 51.8096C79.7044 51.7698 84.281 51.9709 88.1778 52.3392C88.7419 51.0245 88.9552 49.5847 88.7967 48.1619C88.6382 46.7391 88.1134 45.3823 87.274 44.2253Z" fill="#FFD700"/>
<path d="M29.2987 138.054C28.4346 138.811 27.2922 139.189 25.8717 139.189C24.9203 139.189 24.1671 139.046 23.6122 138.759C23.3518 138.636 23.1339 138.437 22.986 138.189C22.8382 137.941 22.767 137.654 22.7817 137.365C22.7748 137.106 22.8234 136.848 22.9244 136.609C23.0072 136.42 23.1167 136.244 23.2494 136.087C23.5428 136.175 23.8441 136.252 24.1315 136.322C24.4468 136.394 24.7693 136.43 25.0928 136.428C26.5119 136.428 27.2215 135.688 27.2215 134.209V123.019C27.3781 122.983 27.6021 122.939 27.8974 122.888C28.1886 122.836 28.4837 122.81 28.7794 122.81C29.4038 122.81 29.8616 122.924 30.1669 123.149C30.4721 123.374 30.6069 123.792 30.6069 124.401V134.574C30.6003 136.137 30.1642 137.298 29.2987 138.054Z" fill="#212322"/>
<path d="M46.5702 132.668C46.5847 133.598 46.4309 134.523 46.1163 135.398C45.8351 136.171 45.3978 136.877 44.8319 137.473C44.2676 138.05 43.5852 138.497 42.832 138.783C41.1362 139.391 39.2832 139.391 37.5874 138.783C36.8356 138.497 36.1537 138.052 35.5875 137.479C35.0187 136.891 34.5803 136.188 34.3011 135.418C33.6958 133.643 33.6958 131.715 34.3011 129.94C34.5768 129.171 35.0159 128.472 35.5879 127.891C36.1599 127.31 36.851 126.861 37.6132 126.575C39.2913 125.967 41.1281 125.967 42.8062 126.575C43.5626 126.865 44.2485 127.314 44.8181 127.891C45.3913 128.483 45.8337 129.19 46.1163 129.966C46.4292 130.832 46.583 131.747 46.5702 132.668V132.668ZM40.2097 128.73C39.7866 128.712 39.3654 128.796 38.9813 128.975C38.5972 129.154 38.2613 129.423 38.0017 129.759C37.4639 130.447 37.1956 131.416 37.1969 132.668C37.1983 133.92 37.4625 134.894 37.9898 135.589C38.5183 136.269 39.2583 136.608 40.2097 136.607C41.1611 136.605 41.9011 136.262 42.4296 135.577C42.9582 134.891 43.2225 133.921 43.2225 132.668C43.2225 131.415 42.9509 130.445 42.4078 129.759C42.1497 129.424 41.8155 129.155 41.4331 128.976C41.0507 128.797 40.6313 128.713 40.2097 128.73Z" fill="#212322"/>
<path d="M58.696 126.224C59.0956 126.21 59.49 126.319 59.8258 126.537C60.1271 126.736 60.2797 127.095 60.2797 127.58C60.2541 127.952 60.1876 128.319 60.0815 128.676C59.9507 129.181 59.7782 129.763 59.5622 130.424C59.3462 131.085 59.0984 131.798 58.8209 132.564C58.5434 133.331 58.258 134.082 57.9646 134.82C57.6713 135.559 57.37 136.26 57.0826 136.919C56.7952 137.578 56.5197 138.137 56.2759 138.589C56.043 138.756 55.7775 138.872 55.497 138.928C55.1233 139.019 54.7398 139.063 54.3553 139.059C53.9182 139.069 53.4828 139.002 53.0689 138.86C52.7415 138.754 52.4674 138.525 52.3038 138.221C52.1466 137.926 51.9563 137.518 51.733 136.997C51.5097 136.475 51.2672 135.883 51.0056 135.222C50.7413 134.559 50.4731 133.859 50.2009 133.122C49.9286 132.385 49.6644 131.65 49.408 130.918C49.157 130.188 48.9237 129.483 48.7084 128.805C48.4903 128.126 48.3119 127.519 48.1752 126.979C48.3792 126.748 48.6317 126.565 48.9145 126.444C49.2251 126.299 49.5632 126.224 49.9055 126.222C50.2968 126.205 50.6832 126.315 51.0076 126.535C51.293 126.744 51.5143 127.118 51.6716 127.658L52.9678 131.961C53.0729 132.309 53.1898 132.678 53.3187 133.07C53.4475 133.462 53.5743 133.845 53.6953 134.219C53.8162 134.593 53.9331 134.948 54.0461 135.288C54.1591 135.629 54.2443 135.909 54.3196 136.134H54.4227C54.9248 134.605 55.4183 133.028 55.9033 131.401C56.3882 129.775 56.8124 128.17 57.1758 126.587C57.3986 126.46 57.6392 126.368 57.8893 126.314C58.1539 126.253 58.4246 126.223 58.696 126.224V126.224Z" fill="#212322"/>
<path d="M65.4712 134.156C65.713 135.042 66.1629 135.686 66.821 136.085C67.5648 136.506 68.4097 136.713 69.2629 136.682C69.9471 136.689 70.6275 136.579 71.2747 136.356C71.7967 136.182 72.2974 135.95 72.7673 135.663C73.0085 135.804 73.2125 136.002 73.3619 136.238C73.514 136.471 73.5952 136.743 73.5958 137.021C73.5983 137.363 73.4731 137.693 73.2449 137.947C72.9756 138.242 72.6483 138.477 72.2836 138.638C71.8236 138.846 71.3395 138.995 70.8426 139.082C70.254 139.188 69.6569 139.24 69.0588 139.237C68.1124 139.248 67.1704 139.108 66.268 138.821C65.4649 138.564 64.7285 138.131 64.1114 137.555C63.4979 136.966 63.0197 136.25 62.7101 135.456C62.3552 134.524 62.1829 133.532 62.2027 132.535C62.1816 131.572 62.3493 130.615 62.6962 129.717C62.9961 128.96 63.4521 128.276 64.0342 127.708C64.594 127.173 65.2628 126.765 65.9944 126.514C66.7539 126.248 67.5528 126.113 68.3571 126.115C69.1537 126.104 69.9457 126.239 70.694 126.514C71.3693 126.761 71.9881 127.142 72.5136 127.635C73.0213 128.12 73.423 128.707 73.6929 129.357C73.9834 130.05 74.1279 130.796 74.1171 131.547C74.1319 131.746 74.1062 131.946 74.0414 132.134C73.9766 132.322 73.8742 132.495 73.7405 132.642C73.4467 132.905 73.0789 133.069 72.688 133.112L65.4712 134.156ZM68.3531 128.598C67.9597 128.588 67.5681 128.658 67.2022 128.803C66.8364 128.949 66.5037 129.168 66.2244 129.447C65.6535 130.012 65.3331 130.817 65.263 131.86L71.029 130.998C70.9657 130.37 70.7014 129.779 70.2758 129.315C69.8437 128.837 69.2028 128.598 68.3531 128.598Z" fill="#212322"/>
<path d="M84.444 129.252C84.0198 128.904 83.4443 128.73 82.7176 128.73C82.249 128.726 81.782 128.787 81.3301 128.911C80.9431 129.018 80.5719 129.176 80.2261 129.381V138.825C80.0715 138.859 79.8634 138.903 79.6037 138.955C79.3131 139.01 79.0176 139.036 78.7217 139.032C78.1152 139.032 77.6653 138.921 77.3699 138.694C77.0746 138.467 76.9299 138.068 76.9299 137.499V129.12C76.9133 128.763 77.0038 128.408 77.1896 128.103C77.406 127.8 77.6794 127.543 77.9943 127.346C78.6095 126.948 79.2849 126.653 79.9942 126.472C80.8911 126.23 81.8167 126.112 82.7453 126.122C84.5292 126.122 85.91 126.52 86.8879 127.316C87.8657 128.113 88.3546 129.274 88.3546 130.799V138.833C88.2159 138.867 88.0137 138.911 87.7441 138.962C87.4573 139.017 87.1659 139.043 86.874 139.04C86.2516 139.04 85.7977 138.929 85.5103 138.702C85.2229 138.475 85.0822 138.076 85.0822 137.507V130.894C85.0809 130.148 84.8681 129.601 84.444 129.252Z" fill="#212322"/>
<path d="M101.491 135.354C101.491 136.573 101.041 137.525 100.141 138.212C99.2415 138.898 97.9261 139.241 96.1951 139.241C95.5463 139.246 94.8984 139.194 94.2586 139.086C93.7392 138.999 93.2329 138.846 92.7522 138.63C92.3717 138.464 92.033 138.214 91.7612 137.899C91.5355 137.634 91.4111 137.296 91.4104 136.947C91.4031 136.645 91.4793 136.346 91.6304 136.085C91.7769 135.843 91.977 135.639 92.2151 135.488C92.7434 135.823 93.3046 136.102 93.8899 136.322C94.5929 136.578 95.3366 136.702 96.0841 136.688C96.7937 136.688 97.3308 136.569 97.6935 136.336C97.8633 136.237 98.0035 136.093 98.0994 135.921C98.1952 135.749 98.2433 135.554 98.2386 135.356C98.2386 134.643 97.7193 134.174 96.6807 133.948L95.2259 133.61C93.9454 133.313 92.998 132.869 92.3836 132.278C91.7691 131.687 91.4619 130.896 91.4619 129.904C91.4508 129.371 91.5676 128.842 91.8025 128.363C92.0374 127.884 92.3836 127.469 92.8117 127.153C93.7116 126.448 94.9755 126.096 96.6034 126.097C97.182 126.094 97.7597 126.142 98.3298 126.241C98.8048 126.32 99.2678 126.459 99.7073 126.657C100.052 126.808 100.362 127.03 100.615 127.31C100.828 127.551 100.943 127.862 100.94 128.184C100.95 128.471 100.881 128.754 100.742 129.004C100.617 129.223 100.449 129.415 100.248 129.566C100.056 129.442 99.8511 129.337 99.6379 129.253C99.3671 129.141 99.0898 129.045 98.8075 128.967C98.491 128.876 98.1701 128.802 97.8462 128.744C97.5191 128.684 97.1875 128.654 96.8551 128.652C96.3075 128.624 95.7618 128.736 95.2695 128.979C95.0964 129.062 94.9506 129.194 94.8492 129.358C94.7478 129.522 94.6949 129.711 94.6967 129.904C94.6932 130.043 94.7207 130.18 94.7769 130.307C94.8331 130.433 94.9168 130.545 95.0217 130.635C95.3565 130.878 95.7435 131.039 96.1515 131.105L97.424 131.418C98.8616 131.748 99.9002 132.231 100.54 132.865C101.179 133.5 101.496 134.329 101.491 135.354Z" fill="#212322"/>
<path d="M37.5847 159.541C37.6054 159.894 37.5092 160.244 37.3112 160.537C37.0707 160.817 36.7743 161.044 36.4411 161.202C36.1755 161.36 35.8929 161.487 35.5987 161.58C35.2318 161.706 34.8571 161.806 34.4768 161.881C34.0698 161.959 33.6503 162.026 33.2182 162.08C32.7874 162.132 32.3539 162.159 31.9199 162.16C30.7639 162.17 29.6128 162.007 28.5048 161.676C27.4991 161.378 26.5689 160.867 25.7774 160.176C24.9852 159.465 24.3678 158.579 23.9738 157.588C23.5138 156.399 23.2928 155.131 23.3236 153.857C23.3004 152.612 23.5255 151.375 23.9856 150.219C24.3906 149.22 25.0114 148.324 25.8032 147.596C26.5853 146.895 27.4992 146.358 28.4909 146.017C29.5529 145.656 30.6678 145.475 31.7891 145.484C32.4996 145.479 33.2088 145.546 33.906 145.683C34.4695 145.792 35.0184 145.967 35.5412 146.204C35.946 146.383 36.3057 146.65 36.5937 146.987C36.8137 147.244 36.9411 147.568 36.9551 147.906C36.9691 148.245 36.869 148.578 36.671 148.853C36.4997 149.096 36.2787 149.3 36.0228 149.45C35.5061 149.122 34.9575 148.847 34.3856 148.63C33.6283 148.357 32.8271 148.229 32.023 148.251C31.3045 148.243 30.591 148.372 29.92 148.63C29.2999 148.868 28.7376 149.237 28.2709 149.711C27.7929 150.211 27.4255 150.807 27.1927 151.459C26.9198 152.22 26.7855 153.024 26.7962 153.833C26.7798 154.676 26.9141 155.516 27.1927 156.312C27.4233 156.961 27.7911 157.553 28.2709 158.046C28.7298 158.508 29.2897 158.857 29.9061 159.063C30.5719 159.286 31.2698 159.397 31.9715 159.39C32.4333 159.394 32.8942 159.35 33.347 159.259C33.6804 159.2 34.0039 159.095 34.3083 158.946V155.31H30.9884C30.8872 155.138 30.8086 154.954 30.7545 154.762C30.6826 154.517 30.6479 154.262 30.6514 154.006C30.6232 153.637 30.7391 153.272 30.9745 152.988C31.0839 152.876 31.2156 152.788 31.361 152.729C31.5064 152.671 31.6624 152.644 31.8188 152.65H36.1794C36.366 152.64 36.5527 152.667 36.7289 152.729C36.9051 152.792 37.0673 152.889 37.2062 153.014C37.3353 153.149 37.4354 153.308 37.5002 153.483C37.565 153.659 37.5931 153.845 37.5827 154.032L37.5847 159.541Z" fill="#212322"/>
<path d="M43.7399 157.038C43.9817 157.924 44.4316 158.569 45.0897 158.968C45.8327 159.389 46.6771 159.595 47.5296 159.565C48.2136 159.573 48.8939 159.464 49.5414 159.242C50.063 159.068 50.5636 158.837 51.0339 158.551C51.2757 158.691 51.4798 158.888 51.6286 159.125C51.7816 159.357 51.863 159.629 51.8624 159.907C51.865 160.249 51.7398 160.58 51.5116 160.833C51.2436 161.129 50.9167 161.364 50.5523 161.524C50.0914 161.732 49.6067 161.881 49.1093 161.968C48.5207 162.075 47.9236 162.127 47.3255 162.123C46.3784 162.136 45.4355 161.995 44.5327 161.707C43.7303 161.45 42.9945 161.018 42.3782 160.441C41.7641 159.852 41.2852 159.136 40.9749 158.342C40.6206 157.41 40.449 156.419 40.4694 155.421C40.4483 154.459 40.616 153.501 40.963 152.604C41.2628 151.847 41.7188 151.162 42.3009 150.595C42.8605 150.059 43.5293 149.651 44.2611 149.4C45.0206 149.134 45.8195 149 46.6238 149.002C47.4204 148.991 48.2124 149.125 48.9607 149.4C49.6353 149.647 50.2534 150.029 50.7782 150.521C51.2884 151.007 51.6933 151.593 51.9675 152.243C52.2568 152.933 52.4026 153.674 52.3956 154.422C52.3956 154.908 52.2708 155.274 52.019 155.517C51.7263 155.78 51.359 155.944 50.9685 155.987L43.7399 157.038ZM46.6218 145.507C46.1884 146.01 45.8072 146.441 45.4781 146.8C45.1491 147.156 44.8042 147.552 44.4395 147.994C44.0075 147.999 43.585 147.867 43.2324 147.616C43.0901 147.514 42.9745 147.379 42.8955 147.222C42.8165 147.065 42.7763 146.892 42.7786 146.716C42.7705 146.463 42.8481 146.214 42.9986 146.011C43.1452 145.82 43.3573 145.576 43.6348 145.28L44.8558 143.976C45.1045 143.736 45.3838 143.53 45.6863 143.363C45.9934 143.208 46.3339 143.132 46.6773 143.142C47.0122 143.137 47.3441 143.205 47.6505 143.341C48.0216 143.543 48.3448 143.824 48.598 144.163L50.5979 146.614C50.6069 146.955 50.4967 147.287 50.2867 147.554C50.1685 147.691 50.02 147.799 49.853 147.868C49.6861 147.937 49.5054 147.966 49.3254 147.953C49.0612 147.962 48.8013 147.884 48.5861 147.729C48.3646 147.559 48.1678 147.357 48.0013 147.132L46.6218 145.507ZM46.6218 151.481C46.2288 151.47 45.8375 151.538 45.4716 151.683C45.1058 151.828 44.7729 152.046 44.4931 152.323C43.9196 152.889 43.5991 153.693 43.5317 154.736L49.2956 153.874C49.2329 153.246 48.9686 152.656 48.5425 152.192C48.1104 151.718 47.4701 151.481 46.6218 151.481V151.481Z" fill="#212322"/>
<path d="M62.7088 152.134C62.2846 151.785 61.7078 151.612 60.9824 151.612C60.5136 151.607 60.0465 151.669 59.5949 151.795C59.2076 151.9 58.8362 152.058 58.4909 152.263V161.707C58.3343 161.741 58.1282 161.785 57.8685 161.836C57.5773 161.893 57.2811 161.919 56.9845 161.916C56.378 161.916 55.9281 161.803 55.6347 161.576C55.3414 161.349 55.1941 160.95 55.1927 160.381V152.002C55.1773 151.645 55.2676 151.291 55.4524 150.985C55.6693 150.683 55.9426 150.426 56.2571 150.228C56.8745 149.831 57.5519 149.536 58.263 149.356C59.1603 149.112 60.0866 148.994 61.0161 149.003C62.7973 149.003 64.1775 149.402 65.1567 150.198C66.1358 150.995 66.6247 152.155 66.6234 153.681V161.715C66.4866 161.749 66.2825 161.793 66.0149 161.844C65.7281 161.9 65.4367 161.926 65.1448 161.924C64.5197 161.924 64.0652 161.811 63.7811 161.584C63.497 161.357 63.3543 160.958 63.353 160.389V153.776C63.3477 153.03 63.1329 152.483 62.7088 152.134Z" fill="#212322"/>
<path d="M70.0445 145.69C70.041 145.45 70.0865 145.211 70.1782 144.989C70.2698 144.766 70.4058 144.565 70.5777 144.398C70.7567 144.22 70.9701 144.081 71.2046 143.989C71.4391 143.898 71.6898 143.855 71.9413 143.864C72.1908 143.854 72.4396 143.897 72.672 143.989C72.9043 144.081 73.1152 144.22 73.2911 144.398C73.4592 144.567 73.5917 144.769 73.6809 144.991C73.7701 145.213 73.8141 145.451 73.8104 145.69C73.8168 145.937 73.7727 146.183 73.6807 146.413C73.5888 146.642 73.4509 146.85 73.2757 147.024C73.1005 147.198 72.8917 147.333 72.6622 147.423C72.4327 147.512 72.1873 147.553 71.9413 147.544C71.6896 147.553 71.4387 147.51 71.2041 147.418C70.9695 147.326 70.7563 147.187 70.5777 147.008C70.4039 146.837 70.267 146.631 70.1753 146.405C70.0836 146.178 70.0391 145.935 70.0445 145.69V145.69ZM70.3061 149.473C70.4449 149.439 70.6471 149.396 70.9146 149.344C71.2016 149.29 71.4929 149.264 71.7848 149.266C72.4091 149.266 72.863 149.378 73.1484 149.605C73.4338 149.832 73.5765 150.23 73.5765 150.799V161.703C73.4378 161.737 73.2356 161.781 72.968 161.832C72.6813 161.887 72.3899 161.914 72.0979 161.912C71.4729 161.912 71.0184 161.798 70.7343 161.571C70.4502 161.344 70.3075 160.946 70.3061 160.377V149.473Z" fill="#212322"/>
<path d="M89.3642 155.55C89.3775 156.479 89.2231 157.403 88.9083 158.276C88.6276 159.05 88.1903 159.756 87.6239 160.351C87.0584 160.932 86.373 161.381 85.6161 161.667C83.9203 162.275 82.0673 162.275 80.3715 161.667C79.6191 161.382 78.9369 160.938 78.3716 160.363C77.8049 159.773 77.3692 159.068 77.0931 158.296C76.4878 156.521 76.4878 154.594 77.0931 152.819C77.3734 152.046 77.8162 151.343 78.3914 150.758C78.9644 150.186 79.6505 149.742 80.4052 149.454C82.0833 148.846 83.9201 148.846 85.5982 149.454C86.3545 149.743 87.0405 150.192 87.61 150.77C88.184 151.361 88.6265 152.068 88.9083 152.845C89.2223 153.711 89.3768 154.628 89.3642 155.55V155.55ZM83.0017 151.612C82.5786 151.594 82.1574 151.678 81.7733 151.857C81.3891 152.036 81.0533 152.305 80.7937 152.641C80.2559 153.328 79.9876 154.297 79.9889 155.55C79.9903 156.804 80.2545 157.777 80.7818 158.471C81.3103 159.15 82.0503 159.489 83.0017 159.489C83.9531 159.489 84.6931 159.146 85.2216 158.46C85.7502 157.772 86.0145 156.802 86.0145 155.55C86.0145 154.299 85.7456 153.329 85.2078 152.641C84.9486 152.305 84.6131 152.037 84.2292 151.857C83.8454 151.678 83.4245 151.594 83.0017 151.612V151.612Z" fill="#212322"/>
<path d="M101.88 158.237C101.88 159.455 101.43 160.408 100.531 161.094C99.6307 161.78 98.3152 162.123 96.5842 162.123C95.9361 162.128 95.2888 162.077 94.6497 161.968C94.1302 161.881 93.6239 161.728 93.1433 161.512C92.7627 161.346 92.424 161.096 92.1522 160.781C91.9265 160.516 91.8021 160.179 91.8014 159.829C91.7938 159.527 91.8707 159.228 92.0234 158.967C92.1691 158.726 92.3686 158.521 92.6061 158.37C93.1344 158.705 93.6957 158.985 94.281 159.204C94.984 159.46 95.7277 159.584 96.4752 159.571C97.1848 159.571 97.7213 159.453 98.0846 159.218C98.2544 159.119 98.3946 158.976 98.4905 158.803C98.5863 158.631 98.6344 158.436 98.6297 158.239C98.6297 157.526 98.1104 157.056 97.0718 156.831L95.6189 156.492C94.3358 156.196 93.3877 155.753 92.7746 155.162C92.1615 154.572 91.8543 153.78 91.8529 152.787C91.8418 152.253 91.9586 151.724 92.1935 151.245C92.4285 150.766 92.7746 150.351 93.2027 150.035C94.1026 149.333 95.3665 148.981 96.9945 148.98C97.5737 148.976 98.1521 149.024 98.7229 149.123C99.1971 149.203 99.6593 149.343 100.098 149.539C100.444 149.69 100.753 149.913 101.006 150.192C101.218 150.433 101.334 150.745 101.331 151.066C101.338 151.354 101.266 151.638 101.123 151.887C100.999 152.106 100.831 152.297 100.63 152.448C100.437 152.324 100.232 152.22 100.019 152.136C99.7485 152.023 99.4711 151.927 99.1887 151.849C98.8722 151.758 98.5513 151.684 98.2273 151.626C97.9002 151.567 97.5686 151.537 97.2363 151.536C96.6889 151.507 96.1432 151.619 95.6506 151.861C95.4782 151.945 95.3331 152.077 95.2321 152.241C95.1311 152.405 95.0783 152.594 95.0798 152.787C95.076 152.925 95.1032 153.063 95.1595 153.189C95.2157 153.316 95.2996 153.428 95.4049 153.518C95.7387 153.761 96.1251 153.922 96.5327 153.987L97.8052 154.3C99.2428 154.631 100.281 155.113 100.921 155.748C101.561 156.382 101.88 157.212 101.88 158.237Z" fill="#212322"/>
</svg>
